<svg width="500" height="500" viewBox="0 0 500 500" fill="none" xmlns="http://www.w3.org/2000/svg">
<path d="M237.441 499.532C235.45 499.317 235.108 499.051 235.108 497.713C235.108 496.807 235.471 496.146 235.969 496.146C237.233 496.146 237.578 494.057 237.588 486.351C237.595 480.637 237.435 479.446 236.663 479.446C236.071 479.446 235.73 478.831 235.73 477.763V476.079L243.481 476.346C247.744 476.492 251.416 476.803 251.642 477.036C251.868 477.269 251.869 478.722 251.645 480.265C251.257 482.939 251.151 483.058 249.393 482.791C248.379 482.638 247.549 482.124 247.549 481.65C247.549 480.704 243.671 479.708 242.613 480.384C242.248 480.616 241.95 481.932 241.95 483.307V485.808L245.838 485.999C249.67 486.188 249.725 486.217 249.724 488.051C249.723 489.889 249.678 489.912 245.992 489.978L242.261 490.044L242.074 492.69C241.911 494.989 242.075 495.389 243.318 495.733C246.035 496.484 247.548 496.211 247.548 494.969C247.548 493.352 247.949 493.069 249.74 493.423C251.129 493.697 251.281 494.036 251.281 496.863V500L245.527 499.892C242.362 499.833 238.724 499.671 237.441 499.532H237.441ZM207.885 496.374C206.275 495.777 204.562 494.483 203.531 493.086C202.047 491.075 201.832 490.204 201.837 486.238C201.844 480.853 203.614 476.897 207.118 474.43C208.986 473.115 209.824 472.942 213.027 473.207C218.335 473.647 220.182 474.664 220.172 477.14C220.156 480.844 219.591 481.931 217.788 481.73C216.519 481.588 216.13 481.187 216.105 479.998C216.055 477.604 215.318 476.877 212.942 476.877C209.785 476.877 207.453 479.504 206.528 484.103C205.455 489.44 207.239 492.619 211.727 493.371C213.844 493.726 213.979 493.639 214.357 491.687C214.713 489.849 214.93 489.674 216.378 490.049C218.566 490.616 218.533 490.531 217.917 494.027L217.374 497.11L213.956 497.234C212.077 497.302 209.345 496.915 207.885 496.374V496.374ZM290.882 495.718C289.973 494.78 290.601 492.635 293.577 486.511C297.025 479.415 297.283 478.023 295.403 476.663C294.016 475.66 291.752 475.93 291.645 477.112C291.608 477.513 291.539 478.418 291.489 479.125C291.427 480.015 290.882 480.471 289.711 480.611C288.377 480.769 287.952 480.5 287.686 479.326C286.775 475.302 286.956 474.725 289.534 473.441C290.902 472.759 293.198 472.061 294.636 471.89C296.924 471.617 297.486 471.822 299.145 473.536C301.918 476.399 301.758 479.61 298.517 486.108C296.116 490.923 296.064 491.147 297.43 490.796C298.219 490.593 300.054 490.231 301.508 489.993C303.921 489.597 304.151 489.678 304.151 490.926C304.151 491.677 304.221 492.486 304.307 492.724C304.392 492.961 301.663 493.815 298.242 494.62C290.984 496.329 291.411 496.265 290.882 495.718V495.718ZM178.785 488.798C176.755 487.908 177.036 488.772 174.102 474.406C173.716 472.517 173.169 471.217 172.886 471.516C172.603 471.815 171.684 474.177 170.844 476.764C169.6 480.596 169.476 481.532 170.179 481.811C171.168 482.203 171.272 483.213 170.459 484.541C169.975 485.33 169.354 485.291 166.085 484.269C162.872 483.265 162.304 482.869 162.46 481.744C162.565 480.982 163.18 480.33 163.892 480.225C165.617 479.969 170.824 464.971 169.462 464.183C168.915 463.867 168.734 463.137 168.97 462.203C169.28 460.98 169.626 460.796 170.971 461.14C175.688 462.348 175.793 462.556 178.63 476.234L179.496 480.409L181.271 474.982C182.482 471.275 182.818 469.476 182.33 469.308C181.497 469.021 181.362 466.195 182.156 465.688C182.454 465.498 184.431 465.947 186.55 466.686C189.389 467.676 190.311 468.278 190.052 468.973C189.859 469.492 189.702 470.182 189.702 470.506C189.702 470.83 189.176 471.096 188.533 471.096C187.321 471.096 186.839 472.206 183.102 483.621C182.176 486.447 181.254 488.955 181.051 489.195C180.848 489.434 179.828 489.256 178.785 488.798V488.798ZM324.988 485.966C322.689 485.194 321.734 484.279 319.855 481.052C317.327 476.711 316.304 472.013 317.167 468.706C318.733 462.7 325.349 460.969 329.596 465.454C333.253 469.317 335.372 478.825 333.416 482.598C333.002 483.398 331.496 484.599 330.07 485.267C327.304 486.564 326.925 486.616 324.988 485.966V485.966ZM329.36 480.941C330.716 479.542 330.205 476.031 327.956 471.289C326.111 467.398 325.008 466.501 323.022 467.276C321.05 468.046 320.729 469.997 321.891 474.151C323.718 480.686 326.85 483.534 329.36 480.941ZM142.735 473.261C138.877 471.164 139.13 471.439 139.615 469.86C139.841 469.126 140.541 468.527 141.172 468.527C142.821 468.527 149.647 455.316 148.643 454.067C148.128 453.426 148.124 452.84 148.628 451.867C149.006 451.138 149.449 450.542 149.614 450.542C150.261 450.542 156.735 454.544 156.726 454.939C156.705 455.866 155.737 456.829 154.603 457.051C152.819 457.4 146.367 470.26 147.246 471.714C147.887 472.773 147.237 474.95 146.281 474.95C146.039 474.95 144.443 474.19 142.735 473.261H142.735ZM353.021 472.585C352.752 471.86 353.172 471.05 354.3 470.121L355.98 468.738L352.841 462.76L349.702 456.783L348.625 458.48C347.392 460.424 347.113 460.499 345.542 459.313C344.447 458.487 344.474 458.306 346.171 455.088C347.145 453.238 348.711 451.315 349.649 450.814L351.356 449.903L355.532 458.091C357.829 462.594 359.802 466.398 359.917 466.543C360.032 466.689 360.822 466.481 361.672 466.081C362.985 465.464 363.314 465.538 363.852 466.577C364.201 467.249 364.486 467.943 364.486 468.118C364.486 468.665 355.365 473.665 354.368 473.665C353.848 473.665 353.242 473.179 353.021 472.585V472.585ZM117.234 457.885C114.441 455.927 112.621 453.802 112.596 452.469C112.587 451.939 113.225 450.671 114.015 449.652C115.291 448.005 115.608 447.886 116.865 448.581C117.97 449.191 118.194 449.717 117.888 450.977C117.159 453.976 121.074 456.654 123.234 454.636C124.81 453.163 124.716 452.615 122.276 449.071C119.583 445.16 119.172 443.394 120.303 440.598C121.6 437.391 124.729 435.927 128.073 436.962C130.726 437.783 133.966 440.265 135.007 442.273C135.483 443.192 135.368 443.983 134.548 445.415C133.382 447.453 132.5 447.732 130.576 446.669C129.557 446.105 129.494 445.814 130.151 444.7C130.816 443.573 130.72 443.221 129.454 442.15C127.681 440.65 126.066 440.56 124.988 441.901C124.092 443.016 125.022 445.44 127.634 448.803C128.544 449.975 129.028 451.469 129.028 453.112C129.028 458.95 122.515 461.585 117.234 457.885V457.885ZM378.441 455.415C374.414 453.604 369.481 445.956 369.498 441.549C369.522 435.104 376.115 431.751 381.369 435.511C387.389 439.819 390.529 448.688 387.457 452.707C386.103 454.479 382.813 456.35 381.145 456.297C380.706 456.284 379.49 455.887 378.441 455.415V455.415ZM384.08 450.771C385.382 449.425 384.908 447.345 382.503 443.859C378.7 438.347 377.139 437.189 375.06 438.338C372.584 439.706 373.942 444.528 378.119 449.2C380.627 452.005 382.425 452.479 384.08 450.771V450.771ZM196.138 431.924C189.106 430.021 183.761 426.661 178.415 420.783C171.376 413.044 167.249 400.901 168.172 390.647C169.173 379.517 171.416 373.384 177.115 366.191C181.066 361.205 186.014 357.068 201.209 346.051C207.025 341.834 213.322 337.268 215.204 335.904C220.02 332.413 224.758 327.589 228.111 322.762C230.456 319.386 231.032 318.004 231.256 315.215C231.486 312.353 231.364 311.802 230.5 311.802C228.668 311.802 225.274 313.585 224.589 314.908C223.654 316.712 220.16 317.755 216.796 317.234C214.343 316.854 213.749 317.01 212.062 318.476C209.852 320.395 207.321 320.622 203.529 319.241C201.395 318.463 200.663 318.459 198.547 319.212C195.687 320.229 193.646 319.975 190.234 318.178C188.159 317.084 187.44 317.001 185.282 317.601C183.162 318.19 182.49 318.125 181.098 317.191C180.185 316.58 179.051 315.518 178.576 314.831C177.885 313.831 177.221 313.652 175.226 313.928C172.179 314.35 170.033 313.569 168.42 311.452C167.326 310.016 166.888 309.888 164.276 310.246C161.589 310.614 161.182 310.48 159.201 308.564C157.274 306.701 155.698 306.202 153.295 306.692C151.554 307.048 149.764 306.523 148.816 305.379C147.59 303.9 146.718 303.803 143.948 304.837C142.317 305.446 141.478 305.382 139.302 304.483L136.645 303.386L134.687 305.346C133.163 306.871 132.174 307.306 130.227 307.306C128.003 307.306 127.627 307.537 126.836 309.391C126.115 311.078 125.489 311.551 123.549 311.87C121.019 312.286 120.249 313.037 119.672 315.656C119.09 318.295 118.04 320.108 116.87 320.492C115.584 320.913 114.827 323.784 115.39 326.102C115.631 327.091 115.378 328.533 114.74 329.806C113.442 332.398 113.873 335.009 116.036 337.664C117.079 338.944 117.523 340.098 117.304 340.963C116.848 342.762 119.32 346.43 121.281 346.863C123.755 347.409 124.687 348.122 124.905 349.638C125.163 351.434 127.732 352.484 130.689 352.003C132.39 351.726 133.337 351.955 134.544 352.936C136.384 354.43 138.602 354.15 140.303 352.21C140.908 351.519 142.219 350.974 143.303 350.963C145.718 350.937 147.201 349.799 147.746 347.554C147.98 346.595 148.768 345.482 149.498 345.08C151.709 343.864 152.416 342.48 152.028 340.125C151.787 338.664 152.028 337.246 152.754 335.854C153.829 333.792 153.823 333.747 152.178 331.729C151.198 330.527 150.515 328.91 150.515 327.794C150.515 326.192 150.219 325.84 148.596 325.504C147.41 325.259 146.418 324.523 146.001 323.578C145.344 322.09 143.482 321.181 141.735 321.496C141.262 321.581 139.827 321.427 138.547 321.152C136.543 320.723 135.799 320.932 133.194 322.658C131.53 323.761 129.665 325.238 129.049 325.94C127.062 328.208 126.054 327.594 126.41 324.331C127.065 318.335 132.063 314.383 139.63 313.877C144.877 313.527 148.065 314.334 151.965 317.002C158.414 321.413 161.716 327.922 161.705 336.201C161.691 346.075 157.836 353.753 150.299 358.919C132.125 371.376 106.976 358.841 103.189 335.438C100.885 321.203 108.085 305.232 120.61 296.793C133.9 287.84 146.989 287.794 173.218 296.608C188.075 301.6 190.586 302.168 197.775 302.162C204.628 302.158 208.388 301.315 215.204 298.26C218.588 296.743 218.605 296.721 216.759 296.311C213.515 295.59 210.345 295.701 210.072 296.547C209.907 297.058 208.66 297.333 206.648 297.304C204.188 297.268 202.978 296.86 201.215 295.471C199.231 293.908 198.599 293.738 196.169 294.115C192.381 294.701 189.495 293.579 187.246 290.647C185.685 288.612 184.898 288.151 182.514 287.874C179.386 287.509 176.25 285.042 175.62 282.449C175.388 281.496 174.152 280.457 171.997 279.404C168.314 277.605 166.687 275.524 166.687 272.614C166.687 270.671 165.99 269.727 162.103 266.407C160.904 265.383 160.467 264.408 160.467 262.755C160.467 259.559 159.489 257.303 157.749 256.484C155.824 255.578 154.869 253.372 154.869 249.832C154.869 247.591 154.618 246.932 153.641 246.612C151.635 245.955 149.893 243.123 149.893 240.518C149.893 238.19 148.462 236.009 146.935 236.009C145.866 236.009 143.673 232.779 143.673 231.204C143.673 229.504 142.121 227.984 139.803 227.416C138.076 226.993 137.769 226.722 135.548 223.661C134.404 222.084 134.009 221.95 131.542 222.299C129.188 222.632 128.533 222.45 126.861 220.997C124.666 219.09 123.042 218.855 121.898 220.278C121.316 221.003 120.05 221.205 116.879 221.081C112.695 220.917 112.611 220.946 110.5 223.323C109.106 224.894 107.813 225.732 106.783 225.732C104.264 225.732 101.377 228.654 101.377 231.202C101.377 232.799 100.915 233.727 99.5676 234.838C97.2071 236.785 96.0802 240.779 97.3595 242.665C98.5365 244.4 98.5111 246.227 97.2907 247.619C96.401 248.635 96.4261 248.958 97.5752 251.284C98.2683 252.687 99.2526 254 99.7624 254.202C100.272 254.404 100.991 255.725 101.359 257.138C102.112 260.025 104.525 262.344 106.777 262.344C107.603 262.344 108.919 263.058 109.702 263.93C111.058 265.441 111.386 265.501 116.636 265.203C121.974 264.9 122.208 264.82 124.13 262.653C125.221 261.423 126.671 260.417 127.353 260.417C128.96 260.417 129.731 259.36 130.235 256.467C130.46 255.178 131.056 253.769 131.56 253.337C132.638 252.413 132.779 249.766 131.784 249.131C131.367 248.865 131.221 247.682 131.419 246.164C131.755 243.574 131.442 243.042 126.191 237.288C125.118 236.112 117.257 234.968 115.103 235.674C113.157 236.312 113.084 234.982 114.951 232.918C121.022 226.207 134.192 231.026 138.888 241.677C140.94 246.331 140.818 255.64 138.643 260.417C135.138 268.113 126.14 274.317 117.505 274.989C105.134 275.953 94.6425 269.474 89.1172 257.46C87.0428 252.949 86.8209 251.921 86.5712 245.663C86.2528 237.681 86.9756 233.478 89.6058 228.02C96.2453 214.243 112.611 205.686 128.343 207.765C142.044 209.576 151.353 216.223 160.998 231.083C163.769 235.352 169.797 246.058 169.797 246.71C169.797 247.546 177.016 259.732 179.369 262.868C182.992 267.698 184.917 269.505 189.391 272.28C193.966 275.117 199.215 276.847 204.951 277.407L209.295 277.83L207.827 276.51C207.019 275.784 205.662 275.19 204.811 275.19C203.014 275.19 199.654 271.814 199.654 270.009C199.654 268.488 197.296 266.198 195.731 266.198C193.946 266.198 189.702 261.537 189.702 259.578C189.702 258.5 189.045 257.437 187.77 256.451C184.037 253.565 182.277 251.33 181.877 248.97C181.375 246.011 180.14 243.931 178.58 243.42C176.927 242.878 175.419 238.66 175.545 234.93C175.626 232.498 175.288 231.298 173.967 229.335C172.247 226.78 171.645 222.362 172.907 221.557C173.671 221.069 173.738 216.306 172.988 215.827C171.227 214.703 172.005 207.692 174.02 206.523C174.872 206.03 175.056 205.116 174.943 201.941C174.791 197.689 175.279 196.208 177.73 193.493C178.813 192.293 179.355 190.867 179.503 188.827C179.76 185.282 180.514 183.719 183.26 181.046C184.914 179.434 185.348 178.508 185.348 176.581C185.348 174.568 185.776 173.741 187.836 171.777C190.224 169.5 191.024 167.161 189.702 166.318C188.799 165.742 188.946 163.386 190.016 161.266C191.09 159.14 191.217 157.253 190.324 156.683C189.982 156.465 189.702 155.349 189.702 154.204C189.702 153.059 189.371 151.781 188.968 151.365C188.564 150.948 188.074 149.374 187.879 147.869C187.574 145.509 187.218 144.982 185.305 144.052C183.594 143.22 182.911 142.373 182.325 140.351C181.392 137.136 179.263 135.583 175.611 135.456C173.746 135.391 172.417 134.914 171.427 133.953C170.629 133.179 168.945 132.373 167.685 132.161C165.844 131.853 165.101 132.062 163.899 133.229C162.651 134.438 161.957 134.616 159.724 134.295C156.512 133.833 154.879 134.648 152.883 137.707C152.086 138.929 150.802 140.085 150.03 140.277C148.136 140.747 146.17 143.988 146.165 146.651C146.163 147.846 145.576 149.802 144.86 150.998L143.559 153.172L144.86 155.75C145.576 157.168 146.161 159.286 146.161 160.457C146.161 162.716 147.171 163.949 150.061 165.222C151.009 165.639 152.029 166.647 152.329 167.46C153.156 169.708 154.633 170.693 156.463 170.219C157.348 169.99 159.026 170.158 160.191 170.593C162.066 171.293 162.591 171.222 164.739 169.975C166.075 169.2 167.716 168.566 168.386 168.566C169.669 168.566 171.663 166.708 171.663 165.513C171.663 165.127 172.395 163.913 173.289 162.816C174.815 160.943 174.887 160.555 174.468 156.504C174.222 154.129 173.63 151.406 173.153 150.452C172.676 149.498 172.285 148.25 172.285 147.679C172.285 145.446 177.93 148.874 179.546 152.088C181.12 155.217 181.567 160.138 180.62 163.893C176.768 179.164 158.258 184.724 145.269 174.512C141.827 171.805 137.25 165.324 136.198 161.666C135.816 160.338 135.346 156.756 135.152 153.706C134.863 149.144 135.038 147.351 136.139 143.61C138.658 135.043 147.119 126.21 155.956 122.922C161.875 120.719 170.685 120.709 177.154 122.897C187.44 126.377 197.105 135.881 200.733 146.085C204.685 157.196 204.117 169.69 199.2 179.826C198.519 181.228 196.939 184.474 195.687 187.038C190.745 197.163 188.614 204.39 188.067 212.885C186.904 230.921 196.3 245.91 218.273 261.076C225.424 266.011 227.485 266.561 229.128 263.972C230.541 261.744 230.41 261.004 228.036 257.792C224.888 253.533 224.781 251.79 227.017 241.123C228.037 236.258 227.141 233.193 223.228 228.158C213.634 215.814 210.573 202.705 213.439 186.229C215.108 176.632 217.655 171.653 224.461 164.68C232.452 156.495 240.508 151.395 246.356 150.823C249.31 150.533 250.285 150.774 254.27 152.777C267.906 159.632 276.87 168.51 280.349 178.605C285.801 194.428 284.1 211.96 275.885 224.61C274.366 226.948 272.688 229.732 272.154 230.797C270.835 233.432 270.937 237.632 272.429 242.111C274.313 247.767 274.105 252.5 271.818 255.984C269.557 259.43 269.475 261.026 271.461 262.953C273.418 264.851 274.778 264.481 279.582 260.745C286.404 255.44 288.25 253.784 293.501 248.257C304.48 236.702 309.102 226.707 309.114 214.491C309.124 203.786 305.465 193.4 296.216 177.879C288.935 165.661 288.172 149.864 294.259 137.337C300.944 123.577 314.241 115.156 327.787 116.102C340.379 116.983 349.61 123.132 355.183 134.351C357.297 138.608 357.333 138.814 357.333 146.718C357.333 154.556 357.281 154.864 355.239 159.091C352.844 164.051 347.819 169.256 342.991 171.777C340.293 173.187 339.118 173.383 333.386 173.383C327.857 173.383 326.391 173.156 323.838 171.905C317.223 168.662 312.237 160.987 312.237 154.048C312.237 148.334 316.218 142.231 319.946 142.231C320.904 142.231 320.905 142.376 319.958 144.267C319.386 145.408 318.835 148.364 318.703 150.995C318.486 155.347 318.592 155.841 320.173 157.794C321.111 158.951 322.187 160.476 322.565 161.181C322.942 161.887 324.062 162.715 325.053 163.022C326.044 163.329 327.954 164.104 329.298 164.745C331.475 165.782 331.932 165.809 333.466 164.99C334.414 164.484 336.337 164.07 337.74 164.07C340.077 164.07 340.369 163.877 341.218 161.777C341.839 160.243 342.832 159.189 344.221 158.59C346.582 157.571 347.07 156.638 347.07 153.144C347.07 151.785 347.489 150.239 348.003 149.709C349.388 148.278 349.201 144.638 347.692 143.665C346.814 143.098 346.448 142.167 346.448 140.499C346.448 137.696 344.17 133.892 342.488 133.885C341.85 133.883 340.311 132.758 339.067 131.386C336.294 128.325 334.566 127.342 333.352 128.135C331.957 129.046 329.455 128.848 327.87 127.702C325.823 126.222 321.807 126.883 319.892 129.016C318.853 130.172 317.766 130.669 316.277 130.669C313.769 130.669 309.749 133.91 309.749 135.932C309.749 136.633 308.498 138.463 306.969 139.997C304.298 142.677 304.192 142.928 304.279 146.348C304.344 148.88 304.069 150.253 303.328 151.098C302.041 152.566 301.975 155.586 303.198 156.982C304.249 158.18 304.577 161.15 303.896 163.294C303.512 164.504 303.889 165.2 306.013 167.205C308.043 169.121 308.673 170.232 308.953 172.39C309.246 174.644 309.731 175.439 311.662 176.829C313.962 178.484 316.192 182.238 315.945 184.04C315.69 185.906 316.031 186.615 318.39 189.125C320.862 191.756 321.877 195.13 320.796 197.125C320.166 198.288 321.496 201.035 323.717 203.158C325.569 204.928 325.649 205.796 324.296 209.455C323.372 211.952 323.372 212.411 324.296 215.211C325.723 219.538 325.557 221.255 323.383 224.646C321.577 227.46 321.491 227.873 321.892 231.74C322.352 236.177 321.749 238.228 319.796 238.868C318.438 239.313 317.213 241.819 317.213 244.153C317.213 246.346 315.172 249.676 313.138 250.8C311.393 251.764 309.749 254.474 309.749 256.385C309.749 257.961 306.187 262.339 304.883 262.364C303.223 262.397 301.918 263.764 301.101 266.326C300.216 269.101 296.626 272.612 294.644 272.641C293.101 272.664 290.658 274.316 291.255 274.933C292.001 275.704 303.404 272.704 307.149 270.752C314.863 266.731 321.375 258.712 326.496 246.928C330.186 238.436 337.616 223.609 340.257 219.465C346.216 210.115 356.146 202.57 365.459 200.317C371.487 198.858 383.249 199.335 388.388 201.247C393.586 203.179 400.623 207.878 403.818 211.546C413.14 222.253 414.882 236.367 408.637 250.589C403.539 262.2 389.445 268.658 376.689 265.227C372.084 263.988 368.62 261.88 364.931 258.07C361.367 254.39 359.661 250.913 358.842 245.657C357.669 238.139 359.97 230.913 365.004 226.297C368.805 222.812 371.436 221.697 376.041 221.62C379.276 221.566 380.151 221.816 382.106 223.356C384.922 225.574 384.99 226.367 382.369 226.397C378.596 226.439 372.286 228.162 371.639 229.327C371.297 229.943 370.073 231.556 368.919 232.912C367.164 234.973 366.884 235.708 367.212 237.401C367.428 238.515 367.268 240.385 366.858 241.558C366.19 243.464 366.256 243.849 367.475 245.19C368.226 246.015 368.84 247.341 368.84 248.136C368.84 250.49 369.991 252.067 371.709 252.067C372.665 252.067 374.069 252.883 375.263 254.133C377.172 256.131 377.422 256.203 382.882 256.331C388.389 256.46 388.57 256.417 390.244 254.586C391.346 253.38 392.582 252.709 393.701 252.709C395.68 252.709 396.97 251.082 397.977 247.316C398.333 245.985 399.369 244.183 400.28 243.312C402.002 241.663 402.012 241.522 400.831 235.521C400.577 234.231 400.706 233.071 401.168 232.497C402.384 230.983 401.265 227.689 398.626 225.019C397.1 223.473 396.208 221.982 396.208 220.973C396.208 218.981 392.754 216.097 390.368 216.097C389.409 216.097 388.026 215.414 387.147 214.506C384.502 211.774 383.313 211.386 380.285 212.261C377.958 212.934 377.346 212.897 376.025 212.003C373.831 210.518 372.253 210.704 370.347 212.672C369.021 214.042 368.07 214.397 365.598 214.447C362.485 214.51 360.754 215.726 360.754 217.848C360.754 218.323 359.43 219.298 357.812 220.014C354.456 221.5 353.935 222.122 353.921 224.656C353.915 225.818 353.328 226.974 352.291 227.868C348.548 231.094 348.314 231.473 348.314 234.3C348.314 236.667 347.986 237.395 346.137 239.133C344.158 240.992 343.96 241.497 343.96 244.671C343.96 247.887 343.765 248.362 341.498 250.679C339.328 252.899 339.079 253.458 339.387 255.422C339.805 258.079 338.342 261.417 336.495 262.023C335.124 262.472 333.123 265.882 333.682 266.816C333.874 267.136 333.595 268.52 333.064 269.892C332.333 271.778 331.422 272.725 329.335 273.773C327.405 274.741 326.308 275.813 325.694 277.33C324.465 280.368 321.845 282.673 318.688 283.494C316.876 283.965 315.537 284.841 314.584 286.179C312.55 289.035 308.862 290.829 305.996 290.355C304.06 290.036 303.312 290.282 301.365 291.879C298.584 294.161 295.514 294.87 292.428 293.942C290.083 293.237 284.247 293.612 284.247 294.467C284.247 294.733 286.696 295.779 289.689 296.792C294.41 298.39 296.081 298.634 302.285 298.629C310.199 298.623 309.219 298.878 326.16 292.419C337.358 288.15 342.3 286.435 349.247 284.405C354.64 282.829 365.64 282.546 370.852 283.85C383.717 287.067 394.217 296.629 398.806 309.308C400.552 314.133 400.761 315.46 400.814 322.079C400.865 328.376 400.66 330.034 399.424 333.319C395.148 344.693 387.015 352.534 377.237 354.71C371.224 356.048 369.518 356.155 365.313 355.462C351.106 353.118 340.576 339.184 342.723 325.566C345.067 310.69 359.012 302.179 371.017 308.297C374.053 309.844 375.01 310.732 376.148 313.063C378.592 318.066 377.564 320.698 374.487 317.316C373.711 316.463 372.369 315.581 371.505 315.357C370.641 315.133 369.497 314.5 368.964 313.949C368.249 313.211 367.331 313.055 365.463 313.357C364.07 313.581 362.126 313.848 361.142 313.95C360.061 314.062 358.707 314.919 357.721 316.115C356.823 317.204 355.459 318.424 354.689 318.825C353.662 319.361 353.29 320.121 353.29 321.681C353.29 322.991 352.812 324.253 352.046 324.969C350.574 326.344 350.425 328.664 351.735 329.787C352.287 330.26 352.668 331.663 352.668 333.223C352.668 335.415 353.062 336.267 355 338.266C356.283 339.589 357.979 341.429 358.769 342.355C359.824 343.591 360.588 343.939 361.648 343.664C362.575 343.424 363.637 343.733 364.615 344.527C367.15 346.587 369.128 346.781 371.229 345.177C372.558 344.161 373.556 343.872 374.704 344.17C376.944 344.75 379.76 343.09 380.562 340.715C381.053 339.259 381.723 338.655 383.181 338.354C385.592 337.856 387.494 334.903 387.498 331.653C387.499 330.162 387.941 328.932 388.744 328.181C390.271 326.754 390.409 322.855 389.03 320.102C388.402 318.849 388.21 317.433 388.471 315.995C388.875 313.771 388.455 313.094 384.76 310.01C384.215 309.555 383.768 308.535 383.768 307.744C383.768 305.625 382.044 303.452 380.363 303.452C377.925 303.452 376.923 302.762 375.982 300.434C375.138 298.349 374.923 298.224 372.428 298.371C369.241 298.559 367.213 297.958 366.74 296.683C366.275 295.433 363.603 295.484 362.575 296.763C361.757 297.781 359.181 297.777 356.912 296.755C356.191 296.43 355.248 296.898 353.859 298.268C352.065 300.039 351.49 300.236 348.493 300.107C345.364 299.971 345.026 300.105 343.536 302.071C342.097 303.971 341.658 304.163 339.131 304.003C336.611 303.843 336.094 304.068 334.058 306.208C332.031 308.339 331.457 308.59 328.62 308.59C325.725 308.59 325.302 308.787 323.786 310.838C322.208 312.976 321.936 313.088 318.27 313.107C315.283 313.122 313.854 313.483 311.926 314.709C309.204 316.44 307.234 316.669 304.262 315.599C302.72 315.044 301.914 315.11 300.341 315.921C297.504 317.382 292.871 317.252 291.094 315.66C289.857 314.552 289.104 314.433 285.512 314.778C281.513 315.162 281.279 315.103 279.171 313.192C277.84 311.985 275.969 311.04 274.395 310.78L271.807 310.353V312.481C271.807 320.048 280.358 328.167 303.218 342.305C317.923 351.4 321.38 353.984 328.126 360.926C335.256 368.262 338.718 375.877 339.549 386.05C340.313 395.397 339.557 399.68 335.76 407.507C328.441 422.595 316.009 430.756 301.847 429.768C286.917 428.727 274.608 417.763 272.314 403.463C270.431 391.731 276.673 378.94 286.582 374.224C298.177 368.705 310.718 372.701 315.986 383.592C317.438 386.595 318.293 393.331 317.589 396.227C316.961 398.812 312.985 403.011 311.165 403.011C309.936 403.011 309.707 402.779 310.059 401.887C310.302 401.268 310.785 398.548 311.132 395.841C311.731 391.161 311.69 390.815 310.288 388.776C309.477 387.596 308.507 386.054 308.133 385.347C307.759 384.64 306.64 383.77 305.646 383.413C304.653 383.056 303.14 382.302 302.285 381.737C301.232 381.042 299.472 380.741 296.837 380.804C293.301 380.889 292.776 381.088 291.118 382.962C290.114 384.097 288.761 385.026 288.11 385.026C286.517 385.026 285.125 386.805 284.639 389.465C284.418 390.67 283.653 392.078 282.939 392.595C281.865 393.372 281.713 393.938 282.06 395.864C282.291 397.145 282.552 399.494 282.641 401.084C282.729 402.673 282.847 404.464 282.902 405.062C282.958 405.66 283.854 406.669 284.894 407.303C285.935 407.938 286.951 409.183 287.153 410.07C287.789 412.863 289.801 414.572 292.455 414.572C294.381 414.572 294.981 414.875 295.532 416.124C295.909 416.977 296.812 417.84 297.54 418.042C299.608 418.615 302.174 418.489 302.589 417.795C302.797 417.448 304.911 417.232 307.287 417.314L311.607 417.463L314.027 414.733C315.362 413.228 317.018 412.003 317.718 412.003C319.265 412.003 321.567 409.14 321.567 407.217C321.567 406.415 322.528 404.938 323.815 403.761C325.716 402.024 325.996 401.435 325.631 399.95C324.893 396.945 325.125 395.256 326.481 393.766C328.107 391.978 328.118 391.123 326.543 389.055C325.221 387.319 324.962 385.286 325.874 383.799C326.667 382.504 325.811 380.59 324.029 379.676C322.902 379.098 322.419 378.227 322.189 376.36C321.878 373.823 321.664 373.616 317.213 371.536C316.7 371.296 315.791 370.048 315.192 368.762C314.138 366.496 313.341 366.034 309.77 365.615C308.763 365.497 307.625 364.496 306.463 362.705C304.853 360.225 304.453 359.975 302.088 359.966C299.055 359.954 298.668 359.73 296.729 356.865C295.372 354.86 295.104 354.744 292.687 355.118C289.912 355.548 288.972 354.892 286.524 350.823C285.664 349.392 285.007 349.056 283.072 349.056C280.512 349.056 277.738 347.298 277.119 345.283C276.686 343.875 274.247 342.633 271.916 342.633C269.63 342.633 267.641 341.088 266.347 338.306C265.758 337.04 264.856 335.797 264.343 335.543C263.829 335.289 262.358 334.616 261.073 334.048C258.698 332.998 256.263 329.771 256.259 327.668C256.258 327.033 255.253 324.894 254.027 322.914L251.797 319.315L249.691 323.106C248.533 325.19 247.578 327.561 247.567 328.373C247.526 331.61 244.08 335.568 241.303 335.568C240.347 335.568 238.265 338.214 238.239 339.462C238.205 341.132 234.949 343.727 232.386 344.128C230.854 344.368 229.617 345.042 228.994 345.978C226.875 349.159 224.437 350.983 222.304 350.983C220.475 350.983 220.039 351.32 218.912 353.601C217.551 356.356 214.29 358.385 212.416 357.643C211.32 357.209 208.984 359.058 208.984 360.36C208.984 361.626 206.44 363.185 204.336 363.208C202.381 363.229 200.276 364.459 200.276 365.58C200.276 365.935 199.696 366.987 198.987 367.918C198.063 369.13 197.12 369.61 195.662 369.61C193.378 369.61 191.945 370.946 191.321 373.656C191.011 375.002 190.208 375.763 188.127 376.684C185.564 377.819 185.348 378.097 185.348 380.249C185.348 382.04 184.891 383.024 183.386 384.476C181.527 386.269 181.461 386.492 182.128 388.736C182.731 390.765 182.648 391.495 181.546 393.845L180.261 396.587L181.931 398.638C183.317 400.338 183.539 401.097 183.231 403.083C182.744 406.228 183.165 407.187 185.714 408.74C186.881 409.451 187.837 410.548 187.838 411.178C187.839 411.809 188.395 413.264 189.073 414.412C189.981 415.95 190.758 416.502 192.025 416.509C194.074 416.521 194.884 417.012 195.792 418.795C196.63 420.44 201.356 422.064 202.343 421.045C203.221 420.138 206.057 420.157 206.947 421.076C207.386 421.529 208.648 421.642 210.337 421.38C212.451 421.052 213.254 420.554 214.086 419.052C214.932 417.527 215.569 417.142 217.244 417.142C219.547 417.142 222.046 414.998 222.046 413.022C222.046 412.392 222.88 411.071 223.9 410.088C226.114 407.952 227.137 405.517 226.355 404.242C225.587 402.989 225.635 399.324 226.425 398.819C227.35 398.229 226.519 395.873 224.778 394.153C223.96 393.344 223.29 391.991 223.29 391.148C223.29 389.271 221.772 387.595 220.074 387.595C219.381 387.595 218.053 386.754 217.123 385.727C215.509 383.943 215.215 383.865 210.605 384.003C207.24 384.104 205.613 384.423 205.235 385.055C204.936 385.553 203.768 386.272 202.639 386.653C201.167 387.149 200.205 388.116 199.236 390.073C198.493 391.574 197.57 393.194 197.185 393.673C196.297 394.777 196.895 400.53 198.239 403.82C199.388 406.631 199.099 407.182 196.789 406.584C192.652 405.511 189.936 399.777 190.499 393.303C191.106 386.323 195.23 380.312 201.802 376.827C205.956 374.625 214.14 374.067 218.809 375.669C226.686 378.37 233.562 386.243 235.759 395.076C237.108 400.498 237.014 404.355 235.383 410.456C232.689 420.533 223.777 429.076 212.983 431.926C207.038 433.496 201.943 433.496 196.137 431.925L196.138 431.924ZM232.014 254.273C233.145 251.2 232.231 243.074 230.754 243.074C230.218 243.074 228.899 247.031 228.892 248.663C228.883 250.605 230.296 255.921 230.821 255.921C231.143 255.921 231.68 255.179 232.014 254.273ZM269.647 250.518C270.273 244.477 268.2 238.735 267.219 243.797C266.436 247.84 267.35 254.636 268.676 254.636C268.975 254.636 269.412 252.783 269.647 250.518ZM45.6293 380.712C46.9757 373.662 46.923 373.347 43.8812 370.279C42.3195 368.704 41.0418 367.221 41.0418 366.982C41.0418 366.743 42.8689 366.346 45.1021 366.099L49.1625 365.65L51.2302 361.415L53.2979 357.179L55.4115 361.307L57.525 365.435L61.7235 366.018C64.0328 366.339 65.9221 366.788 65.9221 367.017C65.9221 367.246 64.5036 368.837 62.7699 370.552C60.2358 373.06 59.6893 373.967 59.9828 375.174C60.1837 376.001 60.5225 377.992 60.7359 379.599L61.1239 382.522L57.3534 380.402L53.583 378.281L49.4354 380.39L45.2878 382.499L45.6293 380.712ZM437.261 381.605C437.261 381.143 437.557 379.11 437.919 377.087L438.578 373.408L435.742 370.642C434.183 369.121 432.907 367.567 432.907 367.189C432.907 366.81 434.712 366.301 436.918 366.057L440.93 365.614L442.846 361.51C443.9 359.253 444.886 357.406 445.036 357.406C445.186 357.406 446.172 359.253 447.226 361.51L449.142 365.614L453.147 366.057C455.35 366.3 457.278 366.71 457.432 366.966C457.585 367.223 456.319 368.845 454.618 370.57C452.916 372.295 451.648 374.041 451.8 374.448C451.951 374.856 452.272 376.818 452.513 378.808L452.951 382.426L449.063 380.42L445.176 378.414L441.218 380.429C438.541 381.793 437.261 382.173 437.261 381.605V381.605ZM495.73 278.489C495.73 277.212 495.362 276.445 494.641 276.217C492.944 275.68 476.161 274.561 469.707 274.554L463.899 274.548L463.195 276.475C462.751 277.69 462.051 278.401 461.301 278.401C460.274 278.401 460.165 278.075 460.498 275.993C460.71 274.668 460.887 270.746 460.89 267.277C460.897 261.185 460.943 260.977 462.238 261.175C463.114 261.309 463.659 261.932 463.81 262.972C463.938 263.848 464.291 264.821 464.595 265.135C465.269 265.831 493.809 267.245 495.294 266.657C495.914 266.411 496.352 265.547 496.352 264.567C496.352 263.198 496.604 262.936 497.751 263.117C498.521 263.238 499.072 263.719 498.976 264.184C498.88 264.65 498.67 268.401 498.508 272.519C498.24 279.387 498.112 280.024 496.972 280.212C495.962 280.379 495.73 280.058 495.73 278.489V278.489ZM14.5019 275.896C8.60546 274.333 2.59438 268.314 0.973973 262.351C-0.0432589 258.607 -0.300895 251.863 0.377958 246.748L0.766664 243.82L5.11931 242.805C10.5804 241.531 10.5634 241.53 10.5634 243.061C10.5634 243.892 9.72435 244.775 8.14151 245.609C6.37056 246.542 5.28392 247.787 4.09846 250.244C2.17834 254.223 2.10126 255.967 3.68613 259.571C6.04119 264.928 13.3637 267.714 21.6186 266.395C30.6394 264.953 35.4437 260.766 35.4437 254.347C35.4437 252.527 35.1078 250.692 34.6973 250.268C33.7783 249.319 26.4956 249.241 24.8287 250.162C24.167 250.528 23.6256 251.404 23.6256 252.109C23.6256 253.307 22.0693 254.528 21.4103 253.847C21.2478 253.679 21.0499 249.875 20.9706 245.393C20.8332 237.625 20.8833 237.254 22.045 237.43C22.7545 237.537 23.4149 238.285 23.6258 239.22C23.9716 240.753 24.2401 240.841 29.5316 241.147L35.0751 241.468L36.6044 245.644C37.8207 248.964 38.1416 251.067 38.1726 255.921C38.2077 261.435 38.0354 262.385 36.3821 265.787C34.5261 269.605 31.3941 272.766 27.3576 274.892C24.9358 276.168 17.6697 276.736 14.5019 275.896V275.896ZM461.854 251.585C461.642 249.2 461.203 245.526 460.879 243.419C460.521 241.088 460.515 239.358 460.863 238.999C461.761 238.071 463.385 239.041 463.385 240.505C463.385 241.234 463.834 242.008 464.383 242.225C465.375 242.619 478.125 241.596 478.533 241.091C478.904 240.63 477.587 228.645 477.106 228.115C476.681 227.646 466.321 228.607 463.859 229.344C463.265 229.522 462.547 230.588 462.265 231.713C461.983 232.838 461.319 233.845 460.79 233.95C460.002 234.107 459.748 233.061 459.389 228.17C459.148 224.886 458.726 220.971 458.452 219.469C457.98 216.882 458.031 216.739 459.426 216.739C460.235 216.739 460.897 217.118 460.897 217.58C460.897 218.042 461.247 218.912 461.675 219.512C462.405 220.538 463.186 220.525 474.581 219.313C494.261 217.218 493.062 217.531 493.501 214.381C493.591 213.735 494.227 213.12 494.913 213.014C496.213 212.814 496.242 213.005 497.167 227.962C497.339 230.749 495.409 230.982 494.878 228.238L494.481 226.188L488.193 226.545C484.736 226.742 481.633 227.185 481.299 227.53C480.646 228.204 481.756 239.856 482.543 240.588C483.072 241.08 493.86 239.699 494.952 239C495.38 238.726 495.73 237.788 495.73 236.914C495.73 235.554 497.219 234.081 497.863 234.805C497.98 234.937 498.266 237.523 498.498 240.55C498.73 243.578 499.175 247.191 499.487 248.579C500.261 252.026 500.253 252.067 498.807 252.067C497.948 252.067 497.318 251.436 496.88 250.14C496.523 249.08 495.93 248.213 495.562 248.213C493.945 248.213 469.67 250.883 467.428 251.308C465.194 251.731 464.92 251.99 464.745 253.85C464.602 255.367 464.242 255.921 463.395 255.921C462.422 255.921 462.179 255.238 461.854 251.585V251.585ZM36.4804 234.296C36.2523 234.06 36.0657 233.244 36.0657 232.481C36.0657 230.353 34.9799 229.459 15.7755 215.776C6.527 209.186 4.66866 207.545 5.11067 206.355C5.51364 205.271 11.6535 203.877 34.5107 199.678C40.6699 198.547 43.5298 197.098 43.5298 195.11C43.5298 194.642 44.1223 194.258 44.8463 194.258C45.8943 194.258 46.0958 194.553 45.8342 195.704C45.555 196.931 45.0234 199.784 43.1334 210.198C42.7431 212.349 40.8948 211.743 40.5867 209.364C40.4502 208.311 40.2081 207.314 40.0486 207.15C39.7366 206.827 31.0151 208.252 30.5858 208.695C30.1255 209.171 28.6454 217.004 28.6411 218.987C28.6374 220.632 29.1264 221.22 31.9783 223.002C36.1142 225.586 36.9523 225.604 37.9437 223.133C38.4416 221.891 39.0945 221.255 39.7296 221.391C40.8619 221.634 40.8684 221.488 39.3877 229.104C38.3965 234.202 37.6612 235.515 36.4804 234.296ZM25.4916 216.992C25.4916 216.5 25.7768 216.097 26.1254 216.097C26.491 216.097 26.5941 215.417 26.369 214.491C26.1129 213.437 26.2389 212.885 26.7356 212.885C27.6195 212.885 27.0485 209.738 25.9783 208.71C25.5241 208.274 25.4366 208.303 25.7059 208.801C26.1751 209.667 22.4524 210.55 20.91 209.939C20.3466 209.716 19.8935 209.853 19.8935 210.247C19.8935 210.639 19.2103 210.959 18.3752 210.959C15.9782 210.959 15.9631 212.012 18.3385 213.528C19.6257 214.349 20.3529 215.229 20.1087 215.67C19.8806 216.082 19.9144 216.213 20.1836 215.962C20.8585 215.333 24.3755 217.291 23.9246 218.044C23.7246 218.378 23.9953 218.479 24.5263 218.269C25.0572 218.059 25.4916 217.484 25.4916 216.992H25.4916ZM459.342 206.68C456.394 205.075 454.874 203.356 453.512 200.088C452.103 196.704 450.719 188.925 451.235 187.289C451.54 186.324 458.671 182.697 460.264 182.697C462.044 182.697 461.492 184.801 459.076 187.222C457.656 188.645 456.226 190.54 455.897 191.433C453.349 198.353 459.12 203.703 463.856 198.812C465.496 197.119 468.244 190.553 469.359 185.664C469.591 184.647 470.931 182.585 472.336 181.081C475.612 177.578 478.787 176.862 482.84 178.713C488.272 181.195 490.897 185.76 490.998 192.899L491.064 197.656L487.021 199.142C484.798 199.96 482.629 200.641 482.201 200.655C480.6 200.709 481.521 198.715 484.533 195.604C487.111 192.942 487.643 191.998 487.643 190.085C487.643 187.839 485.486 184.624 483.98 184.624C480.91 184.624 478.088 188.097 476.153 194.258C473.908 201.41 472.215 204.34 469.315 206.095C466.144 208.014 462.216 208.244 459.342 206.68V206.68ZM42.2067 185.616C38.7113 184.621 37.9317 184.157 37.9317 183.069C37.9317 182.517 39.1638 182.117 41.5632 181.893C43.5605 181.706 45.8505 181.16 46.6522 180.68C51.1336 177.995 52.4506 173.054 49.355 170.539C46.2594 168.025 43.9355 168.698 35.6388 174.511C31.4436 177.45 30.4651 177.859 27.1073 178.072C23.916 178.275 22.9794 178.075 21.2007 176.812C18.1521 174.646 16.7835 171.586 16.7835 166.936C16.7835 162.84 18.405 158.551 21.3061 154.973L22.6925 153.264L27.0466 154.678C30.4897 155.797 31.4007 156.356 31.4007 157.351C31.4007 158.364 31.0411 158.57 29.559 158.404C24.7557 157.866 19.8707 161.023 19.9133 164.638C19.9691 169.374 24.6855 170.323 30.4676 166.761C32.3492 165.602 35.2882 163.727 36.9987 162.595C39.6913 160.813 40.6579 160.537 44.2002 160.537C49.7137 160.537 52.3862 162.51 53.8333 167.65C55.1208 172.224 54.6441 175.02 51.4782 181.463C49.1379 186.226 48.8545 186.547 47.0317 186.493C45.9609 186.461 43.7897 186.067 42.2067 185.616V185.616ZM447.063 167.691C443.615 166.362 441.798 164.962 439.772 162.073C434.359 154.357 435.233 145.312 441.863 140.435C443.266 139.403 448.435 136.458 453.349 133.89L462.284 129.221L461.966 126.776C461.683 124.6 462.207 123.604 463.635 123.604C463.716 123.604 464.868 125.988 466.193 128.903C467.519 131.817 469.233 135.254 470.002 136.54C470.771 137.826 471.23 139.054 471.021 139.27C470.249 140.068 468.84 139.621 467.751 138.232L466.63 136.803L457.596 141.397C452.627 143.924 447.421 147.055 446.027 148.355C442.973 151.204 441.815 154.701 442.851 157.943C444.923 164.427 451.065 165.924 459.342 161.962C466.554 158.51 473.887 154.27 474.227 153.356C474.403 152.884 474.264 151.73 473.919 150.792C473.513 149.691 473.505 148.867 473.894 148.464C474.956 147.368 476.105 148.435 477.312 151.638C477.959 153.353 479.273 156.107 480.232 157.758C481.77 160.405 481.864 160.856 481.029 161.572C480.236 162.252 479.837 162.059 478.567 160.383C476.689 157.906 476.591 157.93 465.251 163.682C455.9 168.425 451.49 169.397 447.063 167.691V167.691ZM63.161 151.287C62.9482 150.931 62.9567 149.888 63.1801 148.969C63.4824 147.726 63.2208 146.897 62.1577 145.728C61.372 144.864 60.5032 144.158 60.227 144.158C59.9508 144.158 54.6763 140.978 48.5058 137.092C42.3354 133.206 37.0637 130.027 36.7908 130.027C36.0105 130.027 33.5777 134.867 33.5777 136.419C33.5777 138.11 34.5305 140.119 36.2639 142.084C37.3992 143.37 37.4424 143.654 36.6314 144.491C35.8203 145.329 35.2202 145.019 31.5348 141.86C29.2374 139.891 27.3576 138.057 27.3576 137.786C27.3576 137.514 27.9537 136.741 28.6823 136.068C30.1905 134.675 31.2744 132.979 38.05 121.414C40.7218 116.854 42.9078 112.648 42.9078 112.069C42.9078 109.651 44.1617 109.57 48.8727 111.686C54.2869 114.117 54.5087 114.297 53.5522 115.487C53.0257 116.143 52.2375 116.258 50.7143 115.903C46.7688 114.984 44.7569 116.045 42.0298 120.483C41.0004 122.158 41.0132 122.196 43.036 123.445C44.1629 124.14 49.0035 127.165 53.7929 130.165C58.5824 133.165 63.8172 136.404 65.4259 137.363L68.3508 139.105L69.4517 137.778C70.6043 136.388 71.8378 136.064 72.4004 137.004C72.7581 137.602 64.9549 151.417 64.0776 151.739C63.7864 151.846 63.3739 151.642 63.161 151.287V151.287ZM425.247 131.943C421.174 130.681 416.285 124.922 414.208 118.94L413.37 116.524L416.741 112.998C420.372 109.202 420.352 109.214 421.643 110.058C422.355 110.524 422.217 111.228 420.865 114.029C418.685 118.547 418.674 122.19 420.833 124.839C422.011 126.285 422.976 126.815 424.427 126.815C429.237 126.815 430.759 123.085 430.088 112.931C429.69 106.894 429.771 106.079 431.04 103.373C435.363 94.1504 447.489 96.3446 452.486 107.254C453.349 109.137 454.055 111.094 454.055 111.603C454.055 112.112 452.495 113.905 450.588 115.587C447.446 118.359 447.03 118.552 446.15 117.643C445.27 116.734 445.303 116.477 446.505 114.9C447.234 113.942 448.132 112.006 448.499 110.596C450.168 104.197 443.984 100.275 440.548 105.553C439.249 107.548 439.126 108.461 439.117 116.152C439.107 123.688 438.96 124.834 437.704 127.123C435.273 131.556 430.258 133.496 425.247 131.943H425.247ZM218.299 124.407C217.2 121.669 215.19 116.732 213.832 113.437C212.473 110.142 211.541 107.261 211.759 107.035C212.804 105.957 218.79 109.117 222.169 112.53C225.19 115.582 225.855 115.988 226.678 115.282C227.723 114.387 228.027 110.115 227.046 110.115C225.851 110.115 223.912 107.259 223.912 105.498C223.912 103.192 225.906 101.123 228.128 101.123C231.838 101.123 233.908 104.58 232.216 107.949C231.186 109.999 231.875 111.143 234.933 112.463C239.021 114.228 241.593 112.928 243.076 108.349C243.681 106.481 243.627 106.261 242.569 106.261C240.702 106.261 238.322 104.914 237.276 103.265C235.996 101.249 236.905 99.531 239.769 98.5551C241.723 97.8889 241.95 97.5719 241.95 95.5091C241.95 93.2297 244.585 87.6341 245.658 87.6341C246.691 87.6341 248.795 91.9708 249.184 94.9034C249.508 97.3439 249.858 97.9451 251.243 98.4436C253.821 99.3717 255.043 100.926 254.465 102.54C253.932 104.027 250.439 106.261 248.647 106.261C248.043 106.261 247.548 106.562 247.548 106.929C247.548 108.48 250.118 112.625 251.324 113.02C253.286 113.663 256.342 112.865 258.383 111.179C260.138 109.728 260.164 109.627 259.16 108.148C257.792 106.13 257.851 104.864 259.412 102.815C261.954 99.478 267.453 101.313 267.453 105.498C267.453 107.23 265.52 110.115 264.36 110.115C264.055 110.115 263.637 110.66 263.432 111.326C262.992 112.758 264.238 115.896 265.246 115.896C265.633 115.896 267.198 114.571 268.723 112.953C270.248 111.334 272.475 109.487 273.673 108.849C276.514 107.336 280.515 106.212 280.515 106.927C280.515 107.484 277.466 114.785 273.745 123.138C272.679 125.532 271.807 127.741 271.807 128.047C271.807 128.354 271.364 128.78 270.823 128.995C270.282 129.209 258.692 129.385 245.068 129.385H220.296L218.299 124.407ZM80.8943 122.695C80.3003 121.956 80.3704 121.408 81.2326 120.049L82.3201 118.335L76.4536 112.538C73.2271 109.35 67.9713 104.321 64.7742 101.363L58.9613 95.984L57.1607 97.0824C55.7906 97.9181 55.187 98.0019 54.6358 97.4326C53.6721 96.4376 66.9615 81.6726 70.4972 79.8099C75.5101 77.169 82.3616 79.7414 84.0042 84.8811C84.4326 86.2215 84.5751 88.5601 84.3493 90.5442L83.9646 93.924L89.0856 94.3921C98.013 95.2081 101.488 94.9948 104.419 93.4504C106.981 92.1009 108.841 92.052 108.841 93.334C108.841 93.665 107.23 95.6515 105.261 97.7486C100.406 102.921 98.8657 103.384 89.6615 102.443C85.6706 102.035 81.4956 101.539 80.3838 101.34C79.1747 101.125 78.3622 101.248 78.3622 101.648C78.3622 102.325 84.8212 108.946 87.0638 110.568C88.1127 111.327 88.5038 111.301 89.8571 110.386C91.1351 109.521 91.6075 109.472 92.3718 110.128C93.1886 110.827 93.0031 111.242 90.9692 113.265C89.6801 114.546 87.0545 117.402 85.1345 119.611C82.2046 122.982 81.5231 123.477 80.8943 122.695V122.695ZM76.8571 98.9149C79.5877 96.0952 79.4105 92.3267 76.3909 89.0003C74.3556 86.7583 69.618 84.15 69.0464 84.9567C68.8675 85.2092 67.9514 85.9215 67.0106 86.5397C66.0698 87.1579 65.3001 88.1882 65.3001 88.8291C65.3001 89.47 67.3956 91.9542 69.9567 94.3494C72.5178 96.7447 74.4895 98.9113 74.3381 99.1642C73.8925 99.9088 76.1068 99.6897 76.8571 98.9149V98.9149ZM386.415 90.6851C385.699 89.8903 384.919 88.156 384.682 86.8313C384.278 84.5684 384.114 84.4226 381.979 84.4226C379.008 84.4226 374.602 81.9508 372.261 78.9711C370.679 76.9567 370.395 76.0432 370.395 72.9619C370.395 70.2188 370.739 68.83 371.799 67.2958C373.723 64.5099 377.806 62.5839 381.787 62.5839C384.872 62.5839 385.012 62.5087 385.012 60.8597C385.012 58.2632 387.413 53.6682 389.274 52.7006C394.018 50.2355 398.26 51.0444 402.262 55.1778C404.599 57.5914 404.916 58.2635 404.916 60.807C404.916 66.0775 400.994 68.9302 394.895 68.0947L391.854 67.6781V74.2037V80.7293L393.856 80.3158C396.414 79.7875 397.321 78.892 396.333 77.871C395.332 76.8378 395.385 75.4302 396.424 75.4302C396.885 75.4302 397.935 76.0388 398.757 76.7827C399.579 77.5266 401.441 78.9857 402.895 80.0251C404.349 81.0646 405.538 82.1993 405.538 82.5466C405.538 83.721 403.782 83.8839 402.255 82.851C401.421 82.2863 400.348 81.9582 399.873 82.122C399.397 82.2858 397.398 82.7464 395.431 83.1455C392.22 83.7971 391.854 84.0353 391.854 85.4738C391.854 86.3552 392.161 87.6679 392.536 88.391C393.108 89.4951 393.606 89.6414 395.646 89.3046C397.584 88.9846 398.074 89.1028 398.074 89.8905C398.074 91.2776 395.495 92.1303 391.3 92.1303C388.385 92.1303 387.474 91.861 386.415 90.6851V90.6851ZM384.642 73.985C384.999 67.5891 384.924 66.4378 384.152 66.4378C382.414 66.4378 379.592 69.589 378.838 72.372C377.974 75.5573 378.508 77.6 380.748 79.684C381.964 80.8154 383.87 81.8912 384.15 81.6048C384.189 81.5649 384.411 78.1359 384.642 73.985ZM397.279 63.1086C400.065 60.7208 400.574 55.5184 398.022 55.5184C394.985 55.5184 392.476 58.7363 392.476 62.6323C392.476 64.5776 392.567 64.6528 394.439 64.2661C395.518 64.0433 396.796 63.5223 397.279 63.1086ZM114.128 80.6134C110.538 79.7168 107.553 77.8175 104.844 74.7058C101.557 70.9301 100.133 66.9469 100.133 61.5301C100.133 53.5702 104.07 46.7837 110.568 43.5432C113.548 42.0568 114.938 41.7685 119.104 41.772C125.406 41.777 129.43 43.4834 133.352 47.8133C137.186 52.0456 138.22 54.7921 138.31 60.9781C138.374 65.3565 138.136 66.6398 136.703 69.6537C132.401 78.7031 123.595 82.9782 114.128 80.6134V80.6134ZM129.227 74.7852C130.347 74.0798 131.561 72.7079 131.925 71.7366C133.698 67.0005 130.788 59.1391 124.943 52.8739C120.934 48.5774 117.22 46.5606 113.277 46.5401C110.942 46.528 110.221 46.8762 108.145 49.0197C104.899 52.3726 104.837 55.4449 107.892 61.6947C113.5 73.1683 122.766 78.8532 129.227 74.7852ZM339.917 59.3099C337.864 58.27 334.699 56.9662 332.884 56.4126C330.415 55.66 329.635 55.1369 329.789 54.3382C329.947 53.5234 330.545 53.3203 332.313 53.4811L334.63 53.6919V48.3315V42.971L329.187 40.8646L323.744 38.7583L320.79 42.0857C319.165 43.9158 317.835 45.725 317.835 46.1061C317.835 46.4871 318.582 47.4139 319.495 48.1656C320.582 49.0604 321.02 49.895 320.764 50.5833C320.42 51.5091 319.907 51.4064 316.461 49.7225C314.309 48.671 311.639 47.6339 310.527 47.418C309.094 47.1397 308.505 46.6722 308.505 45.8122C308.505 44.8379 308.966 44.5991 310.845 44.5991C313.061 44.5991 313.881 43.8811 326.324 31.0493C335.671 21.4116 339.799 17.5659 340.623 17.7291C341.712 17.9448 341.808 19.1271 342.203 37.2127L342.624 56.4666L344.225 57.8887C346.062 59.521 346.337 61.3224 344.737 61.25C344.138 61.2229 341.969 60.3499 339.917 59.3099V59.3099ZM334.746 33.2111L334.941 27.2828L330.772 31.5569C326.764 35.667 326.167 36.8913 328.172 36.8913C328.685 36.8913 328.951 37.1477 328.764 37.4611C328.576 37.7745 328.769 38.018 329.194 38.0022C331.036 37.9337 332.194 38.2114 331.927 38.6577C331.768 38.9226 332.294 39.1394 333.095 39.1394C334.503 39.1394 334.558 38.9424 334.746 33.2111V33.2111ZM169.797 53.1015C169.797 52.4787 170.427 51.6798 171.197 51.3262C173.06 50.4702 172.939 49.6901 168.908 36.5701C163.543 19.1106 163.596 19.2277 161.074 19.2277C159.659 19.2277 158.877 18.9011 158.768 18.2642C158.646 17.5483 160.961 16.5241 167.777 14.2782C172.823 12.6159 177.712 11.0952 178.642 10.8989C181.1 10.3802 186.047 11.6963 187.76 13.3249C192.276 17.6172 191.803 26.3733 186.836 30.4077C184.366 32.4141 180.86 33.3523 179.219 32.4458C177.444 31.4647 177.531 30.5839 179.453 30.0858C182.979 29.172 183.873 24.4663 181.46 19.5243C179.639 15.7946 176.539 14.0654 173.583 15.1297C171.83 15.7607 171.617 16.0746 171.944 17.5414C172.723 21.0246 180.553 45.5941 181.118 46.3283C181.443 46.7495 182.595 47.183 183.678 47.2918C185.797 47.5044 187.009 49.7376 185.005 49.7376C184.425 49.7376 181.022 50.7492 177.444 51.9857C169.92 54.5857 169.797 54.6036 169.797 53.1015ZM295.754 43.9367C294.386 43.648 288.788 42.6411 283.314 41.699C272.43 39.8258 270.563 39.2811 270.563 37.9799C270.563 37.5036 275.119 32.2224 280.688 26.2438C298.235 7.40585 297.666 8.095 295.973 7.72443C285.416 5.41351 284.648 5.45804 281.841 8.54431C280.599 9.91058 279.23 11.4904 278.8 12.0551C277.967 13.1484 276.144 12.8394 276.185 11.6117C276.199 11.2079 276.98 8.85428 277.922 6.38137C279.887 1.21931 279.423 1.37135 287.979 3.08872C290.887 3.67237 296.695 4.6346 300.886 5.22701C310.281 6.55506 310.383 6.83633 303.988 13.7219C280.804 38.6842 281.564 37.7885 283.108 38.3082C286.555 39.4681 294.617 40.507 296.376 40.018C297.402 39.7326 299.288 38.3018 300.566 36.8384C302.047 35.1417 303.231 34.3128 303.831 34.5508C305.139 35.0689 305.064 35.4039 302.555 40.2845C300.211 44.8426 300.165 44.8671 295.754 43.9367V43.9367ZM206.496 42.408C206.496 41.8292 207.203 41.0782 208.067 40.7389C208.931 40.3997 209.79 39.7113 209.977 39.2092C210.164 38.707 209.325 32.2715 208.113 24.908C204.936 5.598 205.438 7.34484 203.07 7.34484C201.627 7.34484 200.957 7.00523 200.745 6.16702C200.48 5.1236 201.235 4.85846 207.359 3.84342C211.16 3.21324 214.943 2.65936 215.765 2.61256C218.059 2.48195 218.087 4.05787 215.805 4.87932L213.806 5.59895L214.214 9.70982C214.571 13.3062 217.756 32.7571 218.639 36.7307C218.896 37.8892 219.389 38.1759 221.125 38.1759C222.82 38.1759 223.29 38.435 223.29 39.3687C223.29 40.387 222.311 40.7268 216.603 41.6907C212.926 42.3118 209.147 42.964 208.206 43.1401C206.91 43.3827 206.496 43.2053 206.496 42.408H206.496ZM230.495 38.9788C230.295 38.7727 230.132 38.0947 230.132 37.4721C230.132 36.4965 237.645 24.0197 247.737 8.23584C249.344 5.72307 250.659 3.55526 250.66 3.41849C250.66 3.28171 247.749 3.31432 244.191 3.49095C236.825 3.85656 235.91 4.35552 234.054 9.0153C233.184 11.2014 232.607 11.8368 231.49 11.8386C230.414 11.8406 230.126 11.5557 230.355 10.717C230.524 10.0988 230.981 7.53999 231.371 5.03082L232.08 0.468711L246.501 0.106876C254.509 -0.0940656 261.174 -0.00356333 261.49 0.310387C262.192 1.00856 260.128 4.54515 245.292 28.0611L240.124 36.2523L247.413 35.8665C255.686 35.4287 256.931 34.8721 259.258 30.5718C260.663 27.9737 261.994 27.2157 262.797 28.5564C263.177 29.1924 260.856 37.4418 260.067 38.2574C259.564 38.777 230.975 39.4744 230.495 38.9788V38.9788Z" fill="white"/>
</svg>
