<svg width="190" height="60" viewBox="0 0 190 60" fill="none" xmlns="http://www.w3.org/2000/svg">
<g clip-path="url(#clip0_12_15)">
<path d="M78.832 43.684C76.248 43.684 73.968 43.152 71.992 42.088C70.0413 40.9987 68.5087 39.466 67.394 37.49C66.3047 35.4887 65.76 33.1327 65.76 30.422C65.76 27.7873 66.3047 25.482 67.394 23.506C68.4833 21.53 70.054 19.9973 72.106 18.908C74.1833 17.7933 76.6913 17.236 79.63 17.236C80.9727 17.236 82.214 17.388 83.354 17.692C84.5193 17.996 85.6213 18.4393 86.66 19.022L86.812 24.342H86.432L84.304 20.39C83.9747 19.7567 83.6707 19.3007 83.392 19.022C83.1133 18.7433 82.7587 18.528 82.328 18.376C81.9227 18.2493 81.5427 18.1607 81.188 18.11C80.8587 18.034 80.4153 17.996 79.858 17.996C78.2873 17.996 76.894 18.414 75.678 19.25C74.4873 20.086 73.5627 21.416 72.904 23.24C72.2453 25.064 71.916 27.458 71.916 30.422C71.916 33.3607 72.22 35.7547 72.828 37.604C73.4613 39.4533 74.348 40.8087 75.488 41.67C76.628 42.506 77.9453 42.924 79.44 42.924C79.668 42.924 79.8833 42.9113 80.086 42.886C80.314 42.8353 80.5293 42.7847 80.732 42.734C81.2133 42.658 81.53 42.4553 81.682 42.126C81.834 41.7967 81.91 41.404 81.91 40.948V33.424C81.91 32.436 81.4033 31.828 80.39 31.6L78.642 31.144V30.764H89.358V31.144L88.826 31.296C87.8633 31.6 87.382 32.2333 87.382 33.196V41.442C86.0647 42.1767 84.722 42.734 83.354 43.114C82.0113 43.494 80.504 43.684 78.832 43.684ZM96.0228 43.57C94.5535 43.57 93.3122 43.152 92.2988 42.316C91.3108 41.48 90.8168 40.2767 90.8168 38.706C90.8168 37.5153 91.4248 36.426 92.6408 35.438C93.8568 34.4247 95.7695 33.6647 98.3788 33.158C98.7842 33.082 99.2402 33.006 99.7468 32.93C100.254 32.8287 100.786 32.7273 101.343 32.626V29.624C101.343 27.9013 101.128 26.698 100.697 26.014C100.292 25.3047 99.6455 24.95 98.7588 24.95C98.1508 24.95 97.6695 25.1527 97.3148 25.558C96.9602 25.938 96.7322 26.6093 96.6308 27.572L96.5548 27.99C96.5042 29.0793 96.2382 29.8773 95.7568 30.384C95.2755 30.8907 94.6802 31.144 93.9708 31.144C93.3122 31.144 92.7675 30.9413 92.3368 30.536C91.9062 30.1307 91.6908 29.586 91.6908 28.902C91.6908 27.8633 92.0455 26.9893 92.7548 26.28C93.4895 25.5707 94.4522 25.0387 95.6428 24.684C96.8335 24.3293 98.1255 24.152 99.5188 24.152C101.774 24.152 103.509 24.7093 104.725 25.824C105.966 26.9133 106.587 28.6993 106.587 31.182V39.58C106.587 40.72 107.119 41.29 108.183 41.29H109.019L109.361 41.594C108.88 42.202 108.348 42.6707 107.765 43C107.208 43.3293 106.41 43.494 105.371 43.494C104.256 43.494 103.37 43.2407 102.711 42.734C102.078 42.202 101.66 41.5053 101.457 40.644C100.697 41.4547 99.9115 42.1513 99.1008 42.734C98.3155 43.2913 97.2895 43.57 96.0228 43.57ZM98.3408 41.252C98.8475 41.252 99.3162 41.138 99.7468 40.91C100.203 40.6567 100.735 40.2767 101.343 39.77V33.386C101.09 33.4367 100.836 33.4873 100.583 33.538C100.33 33.5887 100.038 33.6393 99.7088 33.69C98.5435 33.994 97.6062 34.5133 96.8968 35.248C96.2128 35.9573 95.8708 36.92 95.8708 38.136C95.8708 39.1747 96.1115 39.96 96.5928 40.492C97.0742 40.9987 97.6568 41.252 98.3408 41.252ZM116.717 43.57C115.475 43.57 114.361 43.418 113.373 43.114C112.385 42.8353 111.473 42.4807 110.637 42.05L110.675 37.528H111.055L112.347 39.808C112.904 40.8213 113.512 41.5813 114.171 42.088C114.855 42.5693 115.716 42.81 116.755 42.81C117.971 42.81 118.946 42.544 119.681 42.012C120.441 41.4547 120.821 40.72 120.821 39.808C120.821 38.972 120.555 38.288 120.023 37.756C119.491 37.224 118.503 36.7427 117.059 36.312L115.463 35.818C113.917 35.362 112.701 34.6527 111.815 33.69C110.928 32.7273 110.485 31.5493 110.485 30.156C110.485 28.484 111.143 27.0653 112.461 25.9C113.778 24.7347 115.665 24.152 118.123 24.152C119.111 24.152 120.035 24.266 120.897 24.494C121.783 24.6967 122.632 25.0133 123.443 25.444L123.215 29.548H122.835L121.505 27.192C121.023 26.356 120.542 25.7733 120.061 25.444C119.605 25.0893 118.908 24.912 117.971 24.912C117.109 24.912 116.299 25.1527 115.539 25.634C114.779 26.1153 114.399 26.7993 114.399 27.686C114.399 28.5473 114.715 29.2313 115.349 29.738C116.007 30.2447 116.97 30.7133 118.237 31.144L119.947 31.638C121.771 32.1953 123.075 32.968 123.861 33.956C124.646 34.9187 125.039 36.084 125.039 37.452C125.039 39.3013 124.304 40.7833 122.835 41.898C121.391 43.0127 119.351 43.57 116.717 43.57ZM133.914 43.57C132.292 43.57 131.026 43.1647 130.114 42.354C129.227 41.5433 128.784 40.2513 128.784 38.478V25.482H126.162V25.102L127.074 24.95C127.859 24.7727 128.53 24.5193 129.088 24.19C129.67 23.8607 130.24 23.4173 130.798 22.86L133.914 19.402H134.294L134.18 24.722H138.436V25.482H134.142V39.162C134.142 40.0487 134.332 40.72 134.712 41.176C135.117 41.632 135.624 41.86 136.232 41.86C136.764 41.86 137.232 41.7333 137.638 41.48C138.043 41.2013 138.448 40.834 138.854 40.378L139.234 40.758C138.727 41.6193 138.03 42.3033 137.144 42.81C136.257 43.3167 135.18 43.57 133.914 43.57ZM140.424 43V42.62L140.994 42.468C141.501 42.316 141.843 42.088 142.02 41.784C142.223 41.48 142.324 41.0873 142.324 40.606V28.712C142.324 28.1547 142.223 27.7493 142.02 27.496C141.843 27.2173 141.501 27.0273 140.994 26.926L140.424 26.774V26.394L146.96 24.19L147.34 24.57L147.682 27.838V28.142C148.037 27.4327 148.493 26.7867 149.05 26.204C149.633 25.596 150.266 25.102 150.95 24.722C151.659 24.342 152.356 24.152 153.04 24.152C154.003 24.152 154.737 24.418 155.244 24.95C155.751 25.482 156.004 26.1533 156.004 26.964C156.004 27.8253 155.751 28.4967 155.244 28.978C154.763 29.434 154.18 29.662 153.496 29.662C152.432 29.662 151.495 29.13 150.684 28.066L150.608 27.99C150.355 27.6353 150.063 27.4453 149.734 27.42C149.405 27.3693 149.101 27.5213 148.822 27.876C148.569 28.104 148.353 28.3827 148.176 28.712C148.024 29.016 147.872 29.3707 147.72 29.776V40.378C147.72 41.3913 148.163 42.0247 149.05 42.278L150.266 42.62V43H140.424ZM166.218 43.57C164.292 43.57 162.62 43.1773 161.202 42.392C159.783 41.5813 158.681 40.4413 157.896 38.972C157.136 37.5027 156.756 35.78 156.756 33.804C156.756 31.828 157.161 30.118 157.972 28.674C158.808 27.23 159.935 26.1153 161.354 25.33C162.798 24.5447 164.419 24.152 166.218 24.152C168.016 24.152 169.625 24.5447 171.044 25.33C172.462 26.09 173.577 27.192 174.388 28.636C175.224 30.08 175.642 31.8027 175.642 33.804C175.642 35.8053 175.249 37.5407 174.464 39.01C173.704 40.454 172.614 41.5813 171.196 42.392C169.802 43.1773 168.143 43.57 166.218 43.57ZM166.218 42.81C167.104 42.81 167.814 42.5567 168.346 42.05C168.878 41.5433 169.258 40.644 169.486 39.352C169.739 38.06 169.866 36.236 169.866 33.88C169.866 31.4987 169.739 29.662 169.486 28.37C169.258 27.078 168.878 26.1787 168.346 25.672C167.814 25.1653 167.104 24.912 166.218 24.912C165.331 24.912 164.609 25.1653 164.052 25.672C163.52 26.1787 163.127 27.078 162.874 28.37C162.646 29.662 162.532 31.4987 162.532 33.88C162.532 36.236 162.646 38.06 162.874 39.352C163.127 40.644 163.52 41.5433 164.052 42.05C164.609 42.5567 165.331 42.81 166.218 42.81Z" fill="white"/>
<g clip-path="url(#clip1_12_15)">
<path d="M44.4968 4.94432C42.0024 4.77987 39.5537 6.2424 38.3226 8.63218C37.2018 10.8078 37.3422 13.5515 38.683 15.6735C40.3861 18.369 41.06 20.173 41.0582 22.0322C41.0561 24.1536 40.2049 25.8897 38.1831 27.8965C37.2161 28.8563 36.8762 29.1439 35.6199 30.0654C34.7354 30.7142 34.4848 30.7784 34.1246 30.4488C33.7588 30.1142 33.7738 29.8369 34.1902 29.2385C34.6113 28.6332 34.6497 27.8114 34.3027 26.8291C34.0279 26.0512 34.009 25.3218 34.252 24.8641C34.3502 24.6792 34.6595 24.1955 34.9391 23.7894C36.4519 21.5926 36.7651 18.5475 35.7611 15.7995C35.1205 14.0462 33.4697 12.5043 30.9587 11.3139C30.225 10.966 30.0453 10.924 29.5013 10.9743C28.4245 11.0737 26.9409 11.9595 25.4694 13.3812C24.2161 14.5921 23.7471 15.4569 23.4397 17.1238C22.912 19.9851 23.4757 22.262 25.2424 24.4058C25.963 25.2802 26.1279 25.8125 25.9401 26.6573C25.5283 28.5099 25.5481 28.8128 26.1279 29.5524C26.5651 30.1102 26.5891 30.2388 26.3288 30.6257C26.0263 31.0754 25.6467 30.98 24.3299 30.1228C20.2836 27.4889 18.5534 24.8856 18.7674 21.7532C18.8683 20.2778 19.2607 19.0226 20.1708 17.2642C20.4013 16.8188 20.6924 16.255 20.8177 16.0115C21.7231 14.2512 21.8276 12.0812 21.0999 10.1515C20.4317 8.37933 18.6521 6.7287 16.758 6.12441C15.5666 5.74433 13.9442 5.7461 12.8542 6.12871C11.2269 6.69983 9.66903 8.2338 9.20498 9.72175C9.00235 10.3715 8.96999 10.6828 9.02326 11.4751C9.05888 12.0049 9.14568 12.6269 9.21599 12.8575C9.40971 13.4928 10.2524 14.6186 10.8863 15.0887C13.2781 16.8623 16.6868 15.8967 17.3961 13.2445C17.5706 12.5922 17.4882 11.7376 17.1984 11.1942C16.9008 10.6359 15.8613 10.0407 15.8613 10.4284C15.8613 10.5277 15.9333 10.7444 16.0212 10.9101C16.1091 11.0757 16.218 11.5486 16.2632 11.961C16.3405 12.6647 16.3272 12.7321 16.0462 13.0573C15.8816 13.2479 15.7469 13.4587 15.7469 13.5259C15.7469 13.7334 15.3794 14.056 15.1433 14.056C15.0199 14.056 14.7177 14.1661 14.4717 14.3008C14.0762 14.5173 13.9794 14.5297 13.6342 14.4081C13.4196 14.3325 13.1105 14.3031 12.9475 14.343C12.6106 14.4253 12.3388 14.2542 12.1865 13.8639C12.1313 13.7225 11.9433 13.5477 11.7687 13.4753C11.2365 13.2542 11.0505 13.04 11.0505 12.6476C11.0505 12.4443 10.9428 12.0765 10.811 11.8302L10.5714 11.3824L10.811 11.0047C10.9428 10.797 11.0508 10.4574 11.0513 10.2499C11.0523 9.78742 11.4142 9.22442 11.7631 9.1428C11.9053 9.10951 12.1418 8.90874 12.2885 8.6966C12.656 8.16525 12.9568 8.02369 13.5483 8.10387C13.9595 8.1596 14.0873 8.1288 14.3169 7.91869C14.5384 7.7161 14.6752 7.67976 15.0143 7.73334C15.2463 7.77001 15.5563 7.91 15.7033 8.04447C15.8856 8.21128 16.1304 8.29421 16.4738 8.3055C17.1461 8.32761 17.5383 8.59729 17.7101 9.15568C17.8181 9.50673 17.9437 9.65402 18.2589 9.7985C18.6111 9.95999 18.6766 10.0515 18.7329 10.4614C18.7688 10.7229 18.8591 10.996 18.9334 11.0684C19.0078 11.1408 19.0685 11.3628 19.0685 11.5617C19.0685 11.7605 19.1201 11.9542 19.1831 11.9921C19.3475 12.0911 19.3243 12.419 19.1265 12.7883C18.9294 13.1564 18.9023 13.5654 19.0685 13.6655C19.3119 13.812 19.1648 14.2182 18.7249 14.6137C18.3456 14.9548 18.2668 15.0983 18.2668 15.4479C18.2668 15.7826 18.187 15.9435 17.8823 16.2233C17.3767 16.6877 17.2378 16.9592 17.1905 17.5748C17.1632 17.9291 17.0633 18.1769 16.8638 18.3853C16.4125 18.8568 16.3227 19.1141 16.3507 19.8525C16.3716 20.4038 16.3378 20.5626 16.1809 20.6483C15.8097 20.8512 15.6663 22.069 15.9906 22.2642C16.1287 22.3473 16.1164 23.1747 15.9758 23.2593C15.7434 23.3992 15.8543 24.1664 16.171 24.6102C16.4142 24.951 16.4765 25.1594 16.4615 25.5817C16.4384 26.2296 16.7161 26.9622 17.0205 27.0563C17.3076 27.1451 17.5351 27.5064 17.6275 28.0203C17.7012 28.4301 18.0255 28.8182 18.7128 29.3195C18.9476 29.4907 19.0685 29.6756 19.0685 29.8627C19.0685 30.203 19.8503 31.0123 20.179 31.0123C20.4671 31.0123 20.9011 31.4101 20.9011 31.6741C20.9011 31.9876 21.52 32.574 21.8508 32.574C22.0075 32.574 22.2575 32.6773 22.4062 32.8034L22.6765 33.0326L21.8768 32.9591C20.8205 32.8618 19.8537 32.5614 19.0112 32.0686C18.1873 31.5867 17.833 31.2729 17.1658 30.4341C16.7326 29.8895 15.4031 27.773 15.4031 27.6279C15.4031 27.5147 14.2931 25.6552 13.7828 24.9137C12.0066 22.3329 10.2925 21.1784 7.76955 20.8639C4.87246 20.5027 1.85861 21.989 0.635985 24.3818C0.151627 25.3297 0.0184936 26.0596 0.0771367 27.446C0.123121 28.5329 0.164067 28.7114 0.546068 29.4948C1.56352 31.5814 3.49563 32.7066 5.77355 32.5392C7.36381 32.4223 9.02071 31.345 9.66614 30.0083C10.0667 29.1788 10.0892 27.5619 9.71129 26.7536C8.8466 24.9039 6.4212 24.067 5.30329 25.2325C4.95948 25.5909 4.9729 25.8218 5.33118 25.7111C5.7278 25.5885 7.17548 25.7872 7.37308 25.9914C8.3401 26.9908 8.39774 27.0831 8.33579 27.5329C8.29946 27.7967 8.32617 28.002 8.40295 28.0482C8.58617 28.1585 8.56045 28.6184 8.36197 28.7788C8.26914 28.8539 8.15921 29.0985 8.11783 29.3224C8.02496 29.8249 7.88298 30.0083 7.58706 30.0083C7.46152 30.0083 7.19442 30.1831 6.9935 30.3967C6.63957 30.773 6.59646 30.7868 5.61345 30.8395C4.64679 30.8913 4.58635 30.881 4.3366 30.6186C4.1924 30.467 3.95005 30.343 3.79805 30.343C3.38333 30.343 2.93888 29.9403 2.80024 29.4388C2.73242 29.1936 2.60028 28.9642 2.5064 28.9291C2.41252 28.894 2.23113 28.6658 2.10348 28.4221C1.8919 28.0182 1.88729 27.962 2.05113 27.7857C2.27586 27.5439 2.28058 27.2267 2.06384 26.9253C1.82827 26.5978 2.03567 25.904 2.47036 25.566C2.71849 25.373 2.80346 25.2119 2.80346 24.9344C2.80346 24.4918 3.33537 23.9844 3.79918 23.9844C3.98879 23.9844 4.22698 23.8388 4.4838 23.566C4.87244 23.1531 4.88781 23.1481 5.65841 23.1766C6.24228 23.1982 6.47534 23.163 6.58261 23.0371C6.79324 22.7899 7.09236 22.8309 7.49657 23.1622C7.80439 23.4144 7.92493 23.446 8.35837 23.3881C8.81267 23.3275 8.88536 23.3507 9.0961 23.6246C9.50506 24.1562 9.56168 24.2034 9.87974 24.2769C10.3065 24.3756 10.5924 24.6395 10.5924 24.9348C10.5924 25.2082 10.9962 25.7692 11.193 25.7692C11.4743 25.7692 11.7378 26.148 11.7378 26.5523C11.7378 27.0048 12.0586 27.4965 12.4281 27.6107C12.6079 27.6663 12.6542 27.7809 12.6542 28.17C12.6542 28.7849 12.8301 29.1679 13.1846 29.3252C13.5051 29.4674 13.6851 29.8593 13.6851 30.4144C13.6851 30.7014 13.7655 30.8709 13.9861 31.0487C14.702 31.6253 14.8305 31.7893 14.8305 32.1268C14.8305 32.6322 15.1302 32.9935 15.8083 33.306C16.2052 33.4888 16.4326 33.6692 16.4753 33.8348C16.5914 34.2851 17.1689 34.7137 17.745 34.777C18.1839 34.8251 18.3288 34.9052 18.6162 35.2586C19.0303 35.7678 19.5619 35.9627 20.2594 35.8608C20.7068 35.7955 20.8233 35.825 21.1887 36.0964C21.5134 36.3376 21.7363 36.4085 22.1892 36.4147C22.5597 36.4198 22.7893 36.3721 22.8197 36.2834C22.8701 36.1365 23.4537 36.117 24.0511 36.2422C24.3909 36.3135 24.3879 36.3173 23.7648 36.5807C22.5097 37.1114 21.8173 37.2578 20.5553 37.2586C19.2314 37.2596 18.7688 37.1607 16.0331 36.2938C11.2031 34.763 8.79268 34.7712 6.34549 36.3261C4.03896 37.7917 2.71309 40.5654 3.13733 43.0378C3.8348 47.1023 8.46591 49.2793 11.8126 47.1158C13.2005 46.2186 13.9104 44.8852 13.9129 43.1703C13.915 41.7325 13.307 40.6021 12.1195 39.836C11.4012 39.3726 10.8141 39.2323 9.84787 39.2932C8.45437 39.381 7.53401 40.0674 7.41348 41.1087C7.3479 41.6754 7.53344 41.7822 7.89949 41.3882C8.01286 41.2662 8.35641 41.0097 8.66283 40.8182C9.14251 40.5184 9.27949 40.482 9.6485 40.5566C9.88418 40.6043 10.1484 40.6312 10.2356 40.6164C10.5573 40.5617 10.9003 40.7196 11.0211 40.978C11.0979 41.1421 11.2804 41.27 11.4988 41.3125C11.7979 41.3708 11.8524 41.432 11.8524 41.7102C11.8524 41.904 11.9782 42.1847 12.1586 42.3935C12.4614 42.744 12.4626 42.752 12.2646 43.11C12.1309 43.3519 12.0865 43.5981 12.1309 43.8518C12.2024 44.2607 12.0723 44.5012 11.6652 44.7123C11.5307 44.7821 11.3854 44.9755 11.3425 45.1421C11.242 45.532 10.969 45.7296 10.5243 45.7341C10.3247 45.7361 10.0833 45.8306 9.97174 45.9506C9.65859 46.2876 9.25008 46.3362 8.91133 46.0767C8.68906 45.9064 8.51469 45.8665 8.20149 45.9146C7.657 45.9982 7.18384 45.8159 7.13634 45.504C7.09624 45.2408 6.92466 45.1169 6.46898 45.022C6.10798 44.9469 5.65264 44.3098 5.73656 43.9972C5.77689 43.8471 5.69527 43.6467 5.50323 43.4244C5.10482 42.9632 5.02543 42.5097 5.26441 42.0597C5.38182 41.8385 5.42854 41.5882 5.38429 41.4165C5.28052 41.0138 5.41985 40.5152 5.6567 40.442C5.87202 40.3754 6.06558 40.0603 6.17268 39.602C6.27895 39.1472 6.42063 39.0167 6.88651 38.9445C7.2438 38.8891 7.35921 38.8071 7.49183 38.514C7.63752 38.192 7.70669 38.1519 8.11631 38.1519C8.47474 38.1519 8.65709 38.0763 8.9377 37.8114L9.29832 37.471L9.78736 37.6615C10.1882 37.8177 10.3427 37.8288 10.6431 37.7231C11.1531 37.5434 11.3136 37.5604 11.5394 37.8172C11.7141 38.0159 12.0438 38.107 12.3644 38.0453C12.8069 37.9601 13.0969 38.0469 13.4517 38.3704C13.8167 38.7031 13.8915 38.7265 14.3864 38.6625C14.8674 38.6004 14.9481 38.6226 15.1495 38.872C15.4465 39.2397 15.8418 39.3752 16.4029 39.3019C16.7702 39.254 16.8925 39.2851 17.0197 39.4588C17.1071 39.5781 17.3161 39.7625 17.4841 39.8687C17.7406 40.0308 17.8644 40.0423 18.2547 39.9399C18.6522 39.8357 18.7844 39.8503 19.1666 40.0401C19.7949 40.3523 20.1708 40.3963 20.6974 40.2196C21.0871 40.0888 21.2218 40.0895 21.6148 40.2246C22.3131 40.4645 22.7792 40.4252 23.186 40.0918C23.4967 39.8373 23.6063 39.8101 24.0579 39.8761C24.6775 39.9666 25.3208 39.7854 25.493 39.4721C25.6192 39.2424 26.2443 38.9327 26.5816 38.9327C26.7407 38.9327 26.763 39.0284 26.7207 39.5256C26.6794 40.0098 26.5735 40.2498 26.1415 40.8363C25.5241 41.6746 24.6517 42.5125 23.7648 43.1188C23.4183 43.3557 22.2585 44.1487 21.1876 44.8811C18.3896 46.7944 17.4782 47.5128 16.7508 48.3787C15.7014 49.628 15.2882 50.6933 15.1038 52.6262C14.9339 54.4071 15.694 56.5161 16.9902 57.8601C17.9747 58.8809 18.9589 59.4646 20.2537 59.7951V59.7953C21.3228 60.0682 22.261 60.0681 23.3558 59.7955C25.3435 59.3004 26.9846 57.8168 27.4806 56.0667C27.7809 55.0071 27.7984 54.3371 27.55 53.3956C27.1453 51.8614 25.8791 50.4941 24.4286 50.0249C23.5689 49.7468 22.0618 49.8437 21.2969 50.2262C20.0866 50.8313 19.3271 51.8755 19.2153 53.0877C19.1116 54.2121 19.6117 55.2079 20.3736 55.3942C20.7989 55.4981 20.8522 55.4023 20.6407 54.9141C20.3931 54.3427 20.2831 53.3437 20.4466 53.1519C20.5175 53.0687 20.6875 52.7873 20.8243 52.5266C21.0027 52.1867 21.18 52.0187 21.4511 51.9326C21.659 51.8666 21.874 51.7416 21.9289 51.6549C21.9986 51.5452 22.2982 51.49 22.9178 51.4725C23.7668 51.4485 23.821 51.4619 24.1182 51.7718C24.2894 51.9502 24.5338 52.0963 24.6615 52.0963C24.9742 52.0963 25.2537 52.3874 25.2537 52.7132C25.2537 52.8597 25.3771 53.0947 25.5279 53.2353C25.8483 53.534 26.0015 53.9432 25.8312 54.0457C25.6856 54.1333 25.6767 54.7698 25.8181 54.9873C25.9621 55.2088 25.7739 55.6318 25.366 56.0028C25.1783 56.1736 25.0248 56.4029 25.0248 56.5123C25.0248 56.8555 24.5646 57.2278 24.1404 57.2278C23.8321 57.2278 23.7148 57.2948 23.559 57.5597C23.4056 57.8205 23.2579 57.907 22.8685 57.964C22.5576 58.0095 22.3251 57.9898 22.2442 57.9111C22.0804 57.7516 21.5581 57.7482 21.3964 57.9057C21.2148 58.0826 20.3443 57.8007 20.19 57.5149C20.0228 57.2053 19.8738 57.12 19.4964 57.1179C19.2631 57.1167 19.12 57.0209 18.9528 56.7537C18.8279 56.5543 18.7255 56.3015 18.7253 56.1921C18.7251 56.0827 18.549 55.8921 18.3342 55.7686C17.8648 55.4989 17.7873 55.3325 17.877 54.7862C17.9336 54.4413 17.8927 54.3094 17.6376 54.014L17.3299 53.658L17.5666 53.1818C17.7695 52.7736 17.7849 52.6468 17.6738 52.2944C17.551 51.9047 17.5631 51.866 17.9054 51.5546C18.1826 51.3024 18.2668 51.1315 18.2668 50.8205C18.2668 50.4467 18.3067 50.3983 18.7786 50.2013C19.1619 50.0413 19.3096 49.9091 19.3667 49.6753C19.4816 49.2047 19.7455 48.9727 20.1661 48.9727C20.4346 48.9727 20.6084 48.8893 20.7784 48.6788C20.909 48.5171 21.0157 48.3343 21.0157 48.2727C21.0157 48.078 21.4033 47.8643 21.7633 47.8606C22.1508 47.8567 22.6192 47.5861 22.6192 47.3661C22.6192 47.14 23.0496 46.8189 23.2515 46.8943C23.5964 47.0233 24.1969 46.6707 24.4475 46.1923C24.6551 45.7961 24.7355 45.7377 25.0722 45.7377C25.4649 45.7377 25.9141 45.4207 26.3043 44.8684C26.4191 44.7059 26.6467 44.5887 26.9288 44.547C27.4008 44.4774 28.0003 44.0266 28.0066 43.7366C28.0114 43.5198 28.3949 43.0603 28.571 43.0603C29.0823 43.0603 29.7168 42.3729 29.7243 41.8108C29.7262 41.6697 29.9024 41.258 30.1157 40.8959L30.5032 40.2375L30.9139 40.8626C31.1397 41.2064 31.3248 41.5781 31.325 41.6884C31.3258 42.0536 31.7743 42.6141 32.2115 42.7964C32.4481 42.8951 32.7191 43.0119 32.8136 43.056C32.9081 43.1001 33.074 43.3162 33.1825 43.536C33.4209 44.0191 33.7872 44.2874 34.2082 44.2874C34.6376 44.2874 35.0865 44.5031 35.1662 44.7476C35.2802 45.0976 35.7911 45.403 36.2626 45.403C36.6189 45.403 36.7399 45.4614 36.8983 45.7098C37.349 46.4166 37.5221 46.5303 38.0331 46.4557C38.4782 46.3907 38.5276 46.4109 38.7774 46.7591C39.1345 47.2567 39.2059 47.2956 39.7644 47.2976C40.1999 47.2992 40.2734 47.3427 40.5699 47.7735C40.7839 48.0844 40.9935 48.2583 41.1788 48.2787C41.8366 48.3514 41.9835 48.4318 42.1776 48.8253C42.2877 49.0487 42.4551 49.2655 42.5496 49.3071C43.3693 49.6684 43.4086 49.7043 43.466 50.145C43.5082 50.4691 43.5973 50.6205 43.8048 50.7209C44.1329 50.8795 44.2907 51.212 44.1446 51.4369C43.9766 51.6952 44.0243 52.0483 44.2679 52.3498C44.5579 52.7089 44.5558 52.8575 44.2563 53.168C44.0067 53.4268 43.9639 53.7202 44.0998 54.242C44.167 54.4999 44.1154 54.6021 43.7653 54.9039C43.5284 55.1083 43.3514 55.3649 43.3514 55.5042C43.3514 55.8381 42.9275 56.3354 42.6427 56.3354C42.5137 56.3354 42.2088 56.5481 41.963 56.8095L41.5172 57.2836L40.7217 57.2577C40.2841 57.2434 39.8949 57.2812 39.8566 57.3414C39.7801 57.462 39.3077 57.4837 38.9269 57.3842C38.7929 57.3491 38.6263 57.1992 38.557 57.051C38.4556 56.8341 38.3451 56.7816 37.9904 56.7816C37.5018 56.7816 37.1311 56.4848 37.014 55.9996C36.9768 55.8456 36.7898 55.6294 36.5982 55.5192C36.4066 55.409 36.2415 55.2338 36.2313 55.1299C36.2211 55.026 36.1994 54.7151 36.1831 54.439C36.1669 54.1629 36.1189 53.7549 36.0763 53.5324C36.0124 53.1979 36.0404 53.0994 36.2382 52.9646C36.3697 52.8748 36.5106 52.6303 36.5512 52.421C36.6408 51.9592 36.8971 51.6501 37.1904 51.6501C37.3102 51.6501 37.5595 51.4887 37.7444 51.2916C38.0496 50.9661 38.1463 50.9316 38.7974 50.9168C39.2827 50.9057 39.6068 50.9581 39.8007 51.0789C39.9582 51.1769 40.2367 51.3079 40.4197 51.3699C40.6026 51.4319 40.8087 51.583 40.8776 51.7058C40.9465 51.8285 41.1249 52.0965 41.2742 52.3013C41.5325 52.6555 41.5402 52.7157 41.4298 53.5285C41.3659 53.9986 41.277 54.471 41.2321 54.5783C41.1675 54.7332 41.2095 54.7735 41.4359 54.7735C41.771 54.7735 42.5031 54.0444 42.6188 53.5954C42.7484 53.0925 42.5911 51.9227 42.3236 51.4011C41.3537 49.5095 39.0441 48.8156 36.9089 49.7741C35.0842 50.5932 33.9348 52.8146 34.2814 54.8521C34.704 57.3358 36.9708 59.2399 39.7201 59.4207C42.3279 59.5922 44.6173 58.1749 45.9651 55.5545C46.6642 54.1951 46.8034 53.4514 46.6628 51.828C46.5097 50.0612 45.8721 48.7386 44.5592 47.4645C43.3169 46.2588 42.6804 45.8098 39.9725 44.2304C35.763 41.7749 34.1881 40.3648 34.1881 39.0506V38.6811L34.6646 38.7554C34.9545 38.8005 35.2991 38.9646 35.5442 39.1742C35.9324 39.5061 35.9754 39.5162 36.7118 39.4495C37.3733 39.3897 37.512 39.4105 37.7398 39.6029C38.0671 39.8793 38.9203 39.902 39.4427 39.6481C39.7323 39.5074 39.8808 39.4959 40.1647 39.5923C40.712 39.7781 41.0748 39.7382 41.576 39.4376C41.931 39.2247 42.1942 39.162 42.7442 39.1594C43.4194 39.156 43.4693 39.1367 43.76 38.7654C44.039 38.4091 44.117 38.375 44.6501 38.375C45.1727 38.375 45.2784 38.3314 45.6517 37.9612C46.0265 37.5896 46.1217 37.5505 46.5858 37.5783C47.051 37.6062 47.132 37.5726 47.3971 37.2427C47.6715 36.9013 47.7337 36.878 48.3097 36.9015C48.8618 36.924 48.9676 36.8899 49.298 36.5823C49.5538 36.3443 49.7274 36.263 49.8601 36.3193C50.278 36.4968 50.7523 36.4975 50.9029 36.3208C51.0921 36.0987 51.5843 36.0899 51.6698 36.307C51.7571 36.5284 52.1305 36.6329 52.7173 36.6002C53.1767 36.5747 53.2164 36.5963 53.3718 36.9584C53.5452 37.3627 53.7297 37.4824 54.1786 37.4824C54.4882 37.4824 54.8057 37.86 54.8057 38.2281C54.8057 38.3654 54.8879 38.5424 54.9884 38.6216C55.6688 39.1572 55.7461 39.2747 55.6717 39.6608C55.6236 39.9106 55.6591 40.1566 55.7747 40.3743C56.0285 40.8524 56.0031 41.5296 55.722 41.7773C55.574 41.9077 55.4926 42.1213 55.4924 42.3803C55.4918 42.9447 55.1415 43.4578 54.6976 43.5442C54.4291 43.5965 54.3057 43.7014 54.2152 43.9543C54.0676 44.3667 53.5491 44.6552 53.1366 44.5544C52.9252 44.5027 52.7414 44.5528 52.4965 44.7292C52.1096 45.0078 51.7455 44.9741 51.2787 44.6165C51.0985 44.4784 50.903 44.4246 50.7324 44.4663C50.5371 44.5141 50.3965 44.4537 50.2021 44.239C50.0567 44.0782 49.7443 43.7586 49.508 43.5289C49.1511 43.1817 49.0786 43.0337 49.0786 42.6531C49.0786 42.3821 49.0084 42.1384 48.9067 42.0563C48.6655 41.8612 48.6931 41.4585 48.964 41.2197C49.1052 41.0952 49.1931 40.876 49.1931 40.6484C49.1931 40.3774 49.2616 40.2455 49.4508 40.1525C49.5925 40.0828 49.8439 39.8709 50.0092 39.6818C50.1908 39.474 50.44 39.3253 50.639 39.3059C50.8202 39.2882 51.1783 39.2418 51.4348 39.2028C51.7788 39.1505 51.9479 39.1774 52.0796 39.3057C52.1777 39.4013 52.3882 39.5114 52.5474 39.5503C52.7065 39.5892 52.9536 39.7422 53.0965 39.8904C53.6632 40.4778 53.8526 40.0207 53.4025 39.1518C53.1929 38.7471 53.0165 38.5927 52.4575 38.324C50.2467 37.2616 47.679 38.7397 47.2472 41.3233C46.852 43.6883 48.791 46.1084 51.4071 46.5154C52.1815 46.6359 52.4958 46.6172 53.603 46.3848C55.4037 46.0069 56.9013 44.645 57.6887 42.6697C57.9162 42.0991 57.9539 41.8113 57.9446 40.7177C57.9349 39.5681 57.8965 39.3376 57.5749 38.4997C56.7298 36.2977 54.7962 34.6369 52.4271 34.0781C51.4673 33.8517 49.4418 33.9008 48.4486 34.1746C47.1694 34.5271 46.2591 34.8251 44.1971 35.5665C41.0774 36.6882 41.258 36.644 39.8007 36.645C38.6583 36.6458 38.3505 36.6035 37.4812 36.326C36.93 36.15 36.4789 35.9683 36.4789 35.9222C36.4789 35.7736 37.5536 35.7085 37.9855 35.8309C38.5537 35.992 39.1192 35.8689 39.6313 35.4726C39.9897 35.1951 40.1274 35.1524 40.484 35.2079C41.0118 35.2902 41.6909 34.9787 42.0655 34.4826C42.2409 34.2504 42.4877 34.098 42.8212 34.0162C43.4026 33.8737 43.885 33.4734 44.1114 32.9458C44.2244 32.6823 44.4264 32.496 44.7817 32.3279C45.1662 32.146 45.3339 31.9814 45.4684 31.6539C45.5663 31.4156 45.6177 31.1754 45.5825 31.1199C45.4794 30.9575 45.8479 30.3653 46.1005 30.2872C46.4406 30.1821 46.7099 29.6024 46.633 29.1409C46.5762 28.7999 46.622 28.7025 47.0217 28.3171C47.439 27.9147 47.4749 27.8322 47.4749 27.2737C47.4749 26.7225 47.5116 26.6347 47.8759 26.3118C48.2164 26.0101 48.2767 25.8836 48.2767 25.4724C48.2767 24.9816 48.32 24.9156 49.0093 24.3553C49.2003 24.2001 49.3083 23.9994 49.3094 23.7976C49.3119 23.3574 49.4077 23.2493 50.0257 22.9913C50.3237 22.8669 50.5675 22.6977 50.5675 22.6152C50.5675 22.2465 50.8865 22.0354 51.4597 22.0245C51.9149 22.0158 52.09 21.954 52.3343 21.716C52.6852 21.3743 52.9758 21.3421 53.3798 21.5999C53.6231 21.7552 53.7358 21.7616 54.1642 21.6448C54.7219 21.4927 54.9408 21.5602 55.4279 22.0347C55.5898 22.1923 55.8444 22.3111 56.0209 22.3111C56.4603 22.3111 57.0965 22.8119 57.0965 23.1579C57.0965 23.3331 57.2606 23.592 57.5417 23.8604C58.0276 24.3242 58.2339 24.8963 58.0099 25.1591C57.9249 25.2588 57.9011 25.4605 57.9479 25.6846C58.1653 26.7268 58.1634 26.7514 57.8462 27.0377C57.6785 27.189 57.4877 27.5018 57.4222 27.7329C57.2368 28.387 56.9992 28.6697 56.6348 28.6697C56.4287 28.6697 56.2011 28.7862 55.9982 28.9957C55.69 29.3137 55.6565 29.3212 54.6426 29.2987C53.637 29.2765 53.5911 29.264 53.2396 28.917C53.0197 28.6998 52.7611 28.5581 52.5849 28.5581C52.2686 28.5581 52.0566 28.2842 52.0566 27.8753C52.0566 27.7372 51.9436 27.5071 51.8055 27.3638C51.5809 27.131 51.5687 27.064 51.6917 26.733C51.7673 26.5293 51.7966 26.2045 51.7569 26.0111C51.6965 25.7171 51.7479 25.5894 52.071 25.2314C52.2836 24.996 52.509 24.7158 52.572 24.6088C52.6912 24.4065 53.8533 24.1071 54.5479 24.0998C55.0307 24.0947 55.0181 23.9569 54.4995 23.5717C54.1396 23.3043 53.9785 23.2608 53.3828 23.2702C52.5348 23.2836 52.0503 23.4772 51.3504 24.0825C50.4232 24.8842 49.9995 26.1393 50.2154 27.4449C50.3664 28.3577 50.6805 28.9616 51.3367 29.6007C52.0161 30.2624 52.6541 30.6287 53.5021 30.8438C55.851 31.4397 58.4465 30.318 59.3854 28.3013C60.5353 25.8314 60.2144 23.3801 58.4978 21.5207C57.9096 20.8834 56.6136 20.0676 55.6565 19.7319C54.7101 19.4 52.5439 19.3171 51.434 19.5704C49.719 19.9617 47.8905 21.2722 46.7931 22.8961C46.3069 23.6157 44.9387 26.1908 44.2591 27.6657C43.3161 29.7122 42.1168 31.105 40.6964 31.8033C40.0067 32.1424 37.9068 32.6634 37.7694 32.5295C37.6594 32.4224 38.1093 32.1354 38.3935 32.1314C38.7586 32.1263 39.4195 31.5167 39.5825 31.0347C39.733 30.5897 39.9734 30.3521 40.2791 30.3464C40.5192 30.342 41.1752 29.5819 41.1752 29.3081C41.1752 28.9762 41.478 28.5055 41.7993 28.338C42.1738 28.1428 42.5496 27.5646 42.5496 27.1837C42.5496 26.7783 42.7752 26.3432 43.0253 26.2659C43.3849 26.1547 43.4959 25.7984 43.4112 25.0278C43.3373 24.3563 43.3533 24.2844 43.6857 23.7957C44.0862 23.2068 44.1169 22.9086 43.8539 22.157C43.6839 21.6709 43.6839 21.5912 43.8539 21.1575C44.1031 20.522 44.0884 20.3713 43.7473 20.0638C43.3383 19.6951 43.0935 19.218 43.2095 19.0161C43.4086 18.6696 43.2217 18.0834 42.7664 17.6265C42.332 17.1906 42.2693 17.0676 42.3162 16.7434C42.3616 16.4304 41.9511 15.7786 41.5275 15.491C41.1719 15.2497 41.0825 15.1116 41.0286 14.7201C40.977 14.3454 40.8608 14.1523 40.487 13.8195C40.0958 13.4713 40.0266 13.3505 40.0974 13.1403C40.2228 12.7681 40.1622 12.2522 39.9687 12.044C39.7434 11.8015 39.7558 11.2772 39.9926 11.0222C40.1291 10.8753 40.1798 10.6369 40.1679 10.1973C40.1519 9.60333 40.1715 9.55976 40.6632 9.09431C40.9448 8.82777 41.1752 8.50998 41.1752 8.38815C41.1752 8.03708 41.9154 7.4741 42.3771 7.4741C42.6514 7.4741 42.8518 7.38778 43.043 7.18695C43.3956 6.81659 44.1351 6.70175 44.512 6.95884C44.8039 7.15795 45.2647 7.19223 45.5216 7.03398C45.745 6.89627 46.0634 7.06713 46.574 7.59862C46.803 7.83696 47.0865 8.0322 47.204 8.03266C47.5137 8.03376 47.9332 8.69469 47.9332 9.18143C47.9332 9.4711 48.0005 9.6329 48.1621 9.73122C48.4401 9.90029 48.4746 10.5325 48.2194 10.7811C48.1249 10.8731 48.0478 11.1413 48.0478 11.3774C48.0478 11.9843 47.9579 12.1464 47.5232 12.3233C47.2675 12.4273 47.0844 12.6106 46.9701 12.877C46.8136 13.2416 46.7599 13.2751 46.3297 13.2751C46.0713 13.2751 45.7172 13.3469 45.5426 13.4348C45.2601 13.5771 45.1758 13.5726 44.7751 13.3924C44.5276 13.2811 44.1758 13.1464 43.9934 13.0931C43.8109 13.0398 43.6046 12.8959 43.5351 12.7734C43.4655 12.6509 43.2674 12.3861 43.0948 12.185C42.8036 11.8459 42.784 11.7602 42.8241 11.0043C42.8483 10.5474 42.9499 10.0339 43.0551 9.83571C43.2295 9.50731 43.2292 9.48218 43.0528 9.48218C42.3664 9.48218 41.6333 10.5422 41.6333 11.5346C41.6333 12.7398 42.5515 14.0728 43.7695 14.6359C44.2397 14.8532 44.5098 14.8926 45.5278 14.8926C46.5833 14.8926 46.7997 14.8584 47.2966 14.6137C48.1856 14.1757 49.1111 13.2717 49.5521 12.4104C49.928 11.6761 49.9377 11.6229 49.9377 10.2615C49.9377 8.88881 49.9311 8.85288 49.5418 8.1137C48.5156 6.16514 46.8155 5.09719 44.4968 4.94432L44.4968 4.94432ZM33.5056 26.7858C33.6837 26.7446 33.8768 27.5022 33.7903 28.2892C33.7471 28.6825 33.6666 29.0043 33.6116 29.0043C33.3673 29.0043 33.1992 27.8239 33.3434 27.1218C33.3885 26.902 33.4462 26.7995 33.5056 26.7858ZM26.6283 26.9964C26.9003 26.9964 27.0686 28.4076 26.8603 28.9413C26.7989 29.0987 26.7 29.2274 26.6406 29.2274C26.5439 29.2274 26.2837 28.3042 26.2853 27.9669C26.2867 27.6835 26.5295 26.9964 26.6283 26.9964Z" fill="white"/>
<path d="M29.3727 0C29.1751 0 28.69 0.971889 28.69 1.36776C28.69 1.72601 28.6482 1.7811 28.2882 1.8968C27.7609 2.06628 27.5935 2.36454 27.8292 2.71477C28.0218 3.00114 28.4602 3.23504 28.804 3.23504C28.9988 3.23504 29.0085 3.2733 28.8972 3.59769C28.6242 4.39301 28.1505 4.61858 27.3976 4.31208C26.8344 4.08281 26.7078 3.88423 26.8974 3.52828C27.2091 2.94313 26.8279 2.34264 26.1447 2.34264C25.7355 2.34264 25.3682 2.702 25.3682 3.10247C25.3682 3.40833 25.7253 3.90434 25.9455 3.90434C26.1261 3.90434 26.0699 4.64626 25.8776 4.80175C25.7259 4.92434 25.6036 4.85398 25.0473 4.32389C24.4251 3.73111 23.3227 3.1823 23.1304 3.36958C23.0901 3.40876 23.2617 3.90899 23.5118 4.48133C23.762 5.05367 24.1323 5.91104 24.3346 6.38653L24.7024 7.25103H29.264C31.7729 7.25103 33.9072 7.22064 34.0068 7.1834C34.1065 7.14616 34.188 7.07206 34.188 7.0188C34.188 6.96555 34.3487 6.58198 34.545 6.1663C35.2302 4.71563 35.7915 3.44744 35.7915 3.35062C35.7915 3.22645 35.0547 3.42181 34.5315 3.68464C34.311 3.79542 33.9009 4.11608 33.62 4.39724C33.3392 4.6784 33.0511 4.90838 32.9798 4.90838C32.7942 4.90838 32.5647 4.36337 32.6458 4.11474C32.6835 3.99908 32.7604 3.90434 32.8167 3.90434C33.0303 3.90434 33.3862 3.40325 33.3862 3.10247C33.3862 2.37559 32.3735 2.057 31.9054 2.63659C31.618 2.99237 31.6072 3.21232 31.8593 3.56281C32.044 3.81969 32.0392 3.83724 31.7161 4.08916C31.3403 4.38211 30.7772 4.52052 30.4161 4.40887C30.1939 4.3402 29.7208 3.62044 29.7208 3.35116C29.7208 3.28736 29.8118 3.23504 29.923 3.23504C30.2531 3.23504 30.8964 2.84703 30.9944 2.58882C31.101 2.30841 30.8758 2.03848 30.4011 1.8773C30.1461 1.79072 30.0817 1.68643 30.0221 1.26256C29.9504 0.753252 29.563 0 29.3727 0Z" fill="white"/>
</g>
</g>
<defs>
<clipPath id="clip0_12_15">
<rect width="190" height="60" fill="white"/>
</clipPath>
<clipPath id="clip1_12_15">
<rect width="60" height="60" fill="white"/>
</clipPath>
</defs>
</svg>
